<?xml version="1.0" standalone="no"?>
<svg xmlns="http://www.w3.org/2000/svg" viewBox="0 0 132 30" width="132" height="30"><path fill="#0019ff" fill-rule="nonzero" d="M0.36 5.50L0.36 5.50Q0.36 2.93 2.59 1.46Q4.82 0 7.73 0L7.73 0Q11.45 0 14.26 2.14L14.26 2.14Q15.65 3.22 16.42 5.00Q17.18 6.79 17.18 8.95L17.18 8.95Q17.18 13.20 14.76 15.86L14.76 15.86Q12.24 18.58 8.45 18.58L8.45 18.58Q7.61 18.58 6.67 18.36Q5.74 18.14 5.18 17.78L5.18 17.78Q4.30 18.46 2.92 18.46Q1.54 18.46 0.77 17.69Q0 16.92 0 15.72L0 15.72Q0 12.89 4.30 10.90L4.30 10.90Q4.42 9.89 4.64 8.17Q4.87 6.46 5.00 5.40Q5.14 4.34 5.18 4.01L5.18 4.01Q6.17 3.38 7.46 3.38L7.46 3.38Q8.06 3.38 8.62 3.50L8.62 3.50L7.10 13.75Q6.89 15.12 6.50 16.03L6.50 16.03Q7.25 16.22 7.70 16.22L7.70 16.22Q10.46 16.22 11.98 14.14L11.98 14.14Q13.54 11.95 13.54 8.86L13.54 8.86Q13.54 4.90 10.68 3.17L10.68 3.17Q9.10 2.21 7.20 2.21L7.20 2.21Q4.78 2.21 3.36 3.53L3.36 3.53Q2.54 4.27 2.54 5.33L2.54 5.33Q2.54 5.88 2.88 6.37Q3.22 6.86 4.06 6.94L4.06 6.94L3.82 8.50Q2.06 8.40 1.21 7.52Q0.36 6.65 0.36 5.50ZM1.78 15.41L1.78 15.41Q1.78 16.27 2.59 16.27L2.59 16.27Q2.93 16.27 3.30 15.83Q3.67 15.38 3.82 14.42L3.82 14.42L4.03 12.94Q1.78 14.21 1.78 15.41ZM28.61 18.48L28.61 18.48Q26.40 18.48 25.68 16.94L25.68 16.94Q24.43 18.50 22.48 18.50Q20.52 18.50 19.19 17.18Q17.86 15.86 17.86 13.70L17.86 13.70Q17.86 10.56 19.70 8.69Q21.55 6.82 24.38 6.82L24.38 6.82Q24.46 6.82 24.53 6.82L24.53 6.82Q25.73 6.82 26.74 7.22L26.74 7.22Q27.38 6.82 28.31 6.82Q29.23 6.82 29.64 7.06L29.64 7.06Q29.42 8.83 29.18 10.55Q28.94 12.26 28.85 12.98L28.85 12.98Q28.63 14.62 28.63 15.34L28.63 15.34Q28.63 16.30 29.40 16.30L29.40 16.30Q30.00 16.30 30.67 15.49Q31.34 14.69 31.85 12.96L31.85 12.96Q32.54 13.58 32.81 14.35L32.81 14.35Q32.11 16.63 30.94 17.56Q29.76 18.48 28.61 18.48ZM24.74 8.69L24.74 8.69Q23.21 8.69 22.31 9.85Q21.41 11.02 21.24 13.32L21.24 13.32Q21.22 13.54 21.22 13.73L21.22 13.73Q21.22 14.90 21.78 15.60Q22.34 16.30 23.23 16.30L23.23 16.30Q24.74 16.30 25.51 14.16L25.51 14.16L26.09 8.98Q25.39 8.69 24.74 8.69ZM37.92 15.67L37.92 15.67L38.50 10.32Q38.50 9.67 38.16 9.24Q37.82 8.81 37.04 8.81Q36.26 8.81 35.72 9.49Q35.18 10.18 35.04 11.21L35.04 11.21Q34.18 17.78 34.13 18.36L34.13 18.36L30.89 18.36L32.21 7.06Q33.22 6.79 33.74 6.79L33.74 6.79Q35.35 6.79 35.42 7.97L35.42 7.97Q36.60 6.82 38.24 6.82Q39.89 6.82 40.82 7.63Q41.76 8.45 41.76 9.70L41.76 9.70Q41.76 10.03 41.62 10.97L41.62 10.97Q41.06 14.62 41.06 15.22L41.06 15.22Q41.06 16.32 41.81 16.32L41.81 16.32Q43.44 16.32 44.28 12.91L44.28 12.91Q45.10 13.78 45.26 14.28L45.26 14.28Q43.99 18.50 40.85 18.50L40.85 18.50Q39.36 18.50 38.64 17.59Q37.92 16.68 37.92 15.67ZM45.36 0.68Q45.91 0.12 46.70 0.12Q47.50 0.12 48.06 0.68Q48.62 1.25 48.62 2.04Q48.62 2.83 48.06 3.38Q47.50 3.94 46.70 3.94Q45.91 3.94 45.36 3.38Q44.81 2.83 44.81 2.04Q44.81 1.25 45.36 0.68ZM44.38 7.73Q44.62 7.30 45.29 7.07Q45.96 6.84 46.62 6.84Q47.28 6.84 47.78 7.01L47.78 7.01Q46.85 14.23 46.85 14.30L46.85 14.30Q46.73 14.78 46.73 15.11Q46.73 15.43 46.78 15.67L46.78 15.67Q46.87 16.30 47.65 16.30Q48.43 16.30 49.09 15.28Q49.75 14.26 50.09 12.96L50.09 12.96Q50.26 13.06 50.62 13.54Q50.98 14.02 51.05 14.26L51.05 14.26Q50.57 16.18 49.42 17.35L49.42 17.35Q48.26 18.53 46.66 18.53Q45.05 18.53 44.27 17.74Q43.49 16.94 43.49 15.70L43.49 15.70Q43.49 15.43 43.51 15.14L43.51 15.14L44.38 7.73ZM53.54 12.98Q55.03 12.67 55.76 11.78Q56.50 10.90 56.50 10.07Q56.50 9.24 56.05 8.94Q55.61 8.64 55.08 8.64L55.08 8.64Q53.95 8.64 53.10 9.90Q52.25 11.16 52.25 12.90Q52.25 14.64 53.08 15.49Q53.90 16.34 55.13 16.34L55.13 16.34Q56.93 16.34 58.58 15.10Q60.24 13.85 61.27 11.83L61.27 11.83Q61.80 12.34 62.23 13.08L62.23 13.08Q61.44 14.88 59.42 16.61L59.42 16.61Q58.42 17.45 57.04 17.98Q55.66 18.50 54.19 18.50L54.19 18.50Q51.79 18.50 50.40 17.04L50.40 17.04Q48.91 15.46 48.91 12.98Q48.91 10.51 50.77 8.66Q52.63 6.82 55.22 6.82L55.22 6.82Q57.07 6.82 58.22 7.62Q59.38 8.42 59.40 9.79L59.40 9.79Q59.40 11.64 57.92 12.79Q56.45 13.94 53.88 14.40L53.88 14.40L53.54 12.98ZM63.49 18.53Q62.02 18.53 61.18 17.70Q60.34 16.87 60.34 15.43L60.34 15.43Q60.34 15.05 61.63 4.03L61.63 4.03Q61.97 1.20 63.43 0.46L63.43 0.46Q64.10 0.10 65.04 0.10L65.04 0.10Q68.21 0.10 68.21 3.02L68.21 3.02Q68.21 3.26 68.18 3.53L68.18 3.53Q67.94 6.74 64.15 10.08L64.15 10.08Q64.03 11.26 63.89 12.36L63.89 12.36Q63.60 14.83 63.60 15.10L63.60 15.10Q63.60 16.34 64.68 16.34L64.68 16.34Q65.86 16.34 66.88 14.99Q67.90 13.63 68.45 11.52L68.45 11.52Q68.66 11.59 69.05 11.92Q69.43 12.24 69.58 12.48L69.58 12.48Q69.19 14.47 67.85 16.30L67.85 16.30Q67.18 17.23 66.14 17.83L66.14 17.83Q64.97 18.53 63.49 18.53ZM64.49 6.96L64.42 7.68Q66.62 5.26 66.62 3.34L66.62 3.34Q66.62 2.18 65.76 2.18L65.76 2.18Q65.21 2.23 65.03 2.90Q64.85 3.58 64.69 5.09Q64.54 6.60 64.49 6.96L64.49 6.96ZM70.84 18.53Q69.36 18.53 68.52 17.70Q67.68 16.87 67.68 15.43L67.68 15.43Q67.68 15.05 68.98 4.03L68.98 4.03Q69.31 1.20 70.78 0.46L70.78 0.46Q71.45 0.10 72.38 0.10L72.38 0.10Q75.55 0.10 75.55 3.02L75.55 3.02Q75.55 3.26 75.53 3.53L75.53 3.53Q75.29 6.74 71.50 10.08L71.50 10.08Q71.38 11.26 71.23 12.36L71.23 12.36Q70.94 14.83 70.94 15.10L70.94 15.10Q70.94 16.34 72.02 16.34L72.02 16.34Q73.20 16.34 74.22 14.99Q75.24 13.63 75.79 11.52L75.79 11.52Q76.01 11.59 76.39 11.92Q76.78 12.24 76.92 12.48L76.92 12.48Q76.54 14.47 75.19 16.30L75.19 16.30Q74.52 17.23 73.49 17.83L73.49 17.83Q72.31 18.53 70.84 18.53ZM71.83 6.96L71.76 7.68Q73.97 5.26 73.97 3.34L73.97 3.34Q73.97 2.18 73.10 2.18L73.10 2.18Q72.55 2.23 72.37 2.90Q72.19 3.58 72.04 5.09Q71.88 6.60 71.83 6.96L71.83 6.96ZM79.42 12.98Q80.90 12.67 81.64 11.78Q82.37 10.90 82.37 10.07Q82.37 9.24 81.92 8.94Q81.48 8.64 80.95 8.64L80.95 8.64Q79.82 8.64 78.97 9.90Q78.12 11.16 78.12 12.90Q78.12 14.64 78.95 15.49Q79.78 16.34 81.00 16.34L81.00 16.34Q82.80 16.34 84.46 15.10Q86.11 13.85 87.14 11.83L87.14 11.83Q87.67 12.34 88.10 13.08L88.10 13.08Q87.31 14.88 85.30 16.61L85.30 16.61Q84.29 17.45 82.91 17.98Q81.53 18.50 80.06 18.50L80.06 18.50Q77.66 18.50 76.27 17.04L76.27 17.04Q74.78 15.46 74.78 12.98Q74.78 10.51 76.64 8.66Q78.50 6.82 81.10 6.82L81.10 6.82Q82.94 6.82 84.10 7.62Q85.25 8.42 85.27 9.79L85.27 9.79Q85.27 11.64 83.80 12.79Q82.32 13.94 79.75 14.40L79.75 14.40L79.42 12.98ZM99.91 16.27L99.91 16.27Q100.18 16.37 100.50 16.37Q100.82 16.37 101.12 16.30Q101.42 16.22 101.68 15.95Q101.93 15.67 102.07 15.50Q102.22 15.34 102.43 14.76L102.43 14.76Q102.70 14.09 103.08 12.86L103.08 12.86Q104.09 13.80 104.28 14.28L104.28 14.28Q103.13 18.50 100.22 18.50L100.22 18.50Q98.86 18.50 96.74 16.73L96.74 16.73Q95.64 18.50 93.31 18.50L93.31 18.50Q92.28 18.50 91.45 17.81Q90.62 17.11 90.62 15.82Q90.62 14.52 91.49 13.69Q92.35 12.86 93.72 12.86L93.72 12.86Q93.98 12.86 94.46 12.91L94.46 12.91L94.80 9.86Q93.74 10.20 91.54 10.73L91.54 10.73L91.54 8.93Q93.34 8.52 94.99 8.02L94.99 8.02L95.47 4.10Q95.98 0.10 99.55 0.10L99.55 0.10Q100.97 0.10 101.82 0.88Q102.67 1.66 102.67 3.07L102.67 3.07Q102.67 6.48 98.28 8.57L98.28 8.57L97.56 14.23L97.54 14.47Q99.31 16.06 99.91 16.27ZM100.87 3.26L100.87 3.26Q100.87 2.26 100.03 2.26L100.03 2.26Q99.02 2.26 98.76 4.63L98.76 4.63L98.52 6.53Q100.87 5.14 100.87 3.26ZM92.45 15.65L92.45 15.65Q92.45 16.37 93.26 16.37L93.26 16.37Q94.06 16.37 94.25 14.95L94.25 14.95Q93.79 14.76 93.40 14.76Q93.00 14.76 92.72 15.02Q92.45 15.29 92.45 15.65ZM108.84 6.82L108.84 6.82Q111.05 6.82 112.52 8.23Q114.00 9.65 114.00 11.69L114.00 11.69Q114.00 14.78 112.19 16.64Q110.38 18.50 107.81 18.50Q105.24 18.50 103.74 17.04Q102.24 15.58 102.24 13.42L102.24 13.42Q102.24 10.39 104.09 8.62L104.09 8.62Q105.96 6.82 108.84 6.82ZM108.37 8.76Q107.23 8.76 106.46 10.06Q105.70 11.35 105.62 13.32L105.62 13.32Q105.62 14.71 106.19 15.62Q106.75 16.54 107.90 16.54Q109.06 16.54 109.84 15.26Q110.62 13.99 110.62 12.36Q110.62 10.73 110.06 9.77L110.06 9.77Q109.51 8.76 108.37 8.76ZM120.46 1.66L120.46 1.66Q120.46 1.80 119.81 6.82L119.81 6.82L123.34 6.82L123.34 8.66L119.57 8.66L119.50 9.26Q122.30 11.62 122.30 14.40L122.30 14.40Q122.30 16.58 121.19 17.54Q120.07 18.50 118.51 18.50Q116.95 18.50 116.23 17.68Q115.51 16.85 115.51 15.67L115.51 15.67Q115.51 15.41 115.56 15.10L115.56 15.10L116.30 8.71L116.21 8.66L114.26 8.66Q114.24 8.42 114.24 7.88Q114.24 7.34 114.46 6.82L114.46 6.82L116.52 6.82L117.29 0.29Q117.79 0.10 118.63 0.10L118.63 0.10Q120.46 0.10 120.46 1.66ZM120.70 14.38L120.70 14.38Q120.70 12.72 119.26 11.11L119.26 11.11Q118.82 14.69 118.82 15.24L118.82 15.24Q118.82 16.32 119.52 16.32L119.52 16.32Q120.02 16.32 120.36 15.85Q120.70 15.38 120.70 14.38ZM128.71 1.66L128.71 1.66Q128.71 1.80 128.06 6.82L128.06 6.82L131.59 6.82L131.59 8.66L127.82 8.66L127.75 9.26Q130.56 11.62 130.56 14.40L130.56 14.40Q130.56 16.58 129.44 17.54Q128.33 18.50 126.77 18.50Q125.21 18.50 124.49 17.68Q123.77 16.85 123.77 15.67L123.77 15.67Q123.77 15.41 123.82 15.10L123.82 15.10L124.56 8.71L124.46 8.66L122.52 8.66Q122.50 8.42 122.50 7.88Q122.50 7.34 122.71 6.82L122.71 6.82L124.78 6.82L125.54 0.29Q126.05 0.10 126.89 0.10L126.89 0.10Q128.71 0.10 128.71 1.66ZM128.95 14.38L128.95 14.38Q128.95 12.72 127.51 11.11L127.51 11.11Q127.08 14.69 127.08 15.24L127.08 15.24Q127.08 16.32 127.78 16.32L127.78 16.32Q128.28 16.32 128.62 15.85Q128.95 15.38 128.95 14.38Z"></path><line x1="39.477599999999995" y1="28.576" x2="92.11439999999999" y2="28.576" stroke="#0019ff" stroke-linecap="round"></line></svg>