<?xml version="1.0" encoding="UTF-8" standalone="no"?>
<svg
   xmlns:dc="http://purl.org/dc/elements/1.1/"
   xmlns:cc="http://creativecommons.org/ns#"
   xmlns:rdf="http://www.w3.org/1999/02/22-rdf-syntax-ns#"
   xmlns:svg="http://www.w3.org/2000/svg"
   xmlns="http://www.w3.org/2000/svg"
   xmlns:sodipodi="http://sodipodi.sourceforge.net/DTD/sodipodi-0.dtd"
   xmlns:inkscape="http://www.inkscape.org/namespaces/inkscape"
   version="1.1"
   id="svg2"
   xml:space="preserve"
   width="560.79999"
   height="519.4267"
   viewBox="0 0 560.79999 519.4267"
   sodipodi:docname="Pattern 09.eps"><metadata
     id="metadata8"><rdf:RDF><cc:Work
         rdf:about=""><dc:format>image/svg+xml</dc:format><dc:type
           rdf:resource="http://purl.org/dc/dcmitype/StillImage" /></cc:Work></rdf:RDF></metadata><defs
     id="defs6"><clipPath
       clipPathUnits="userSpaceOnUse"
       id="clipPath84"><path
         d="M 0,0 H 4206 V 3896 H 0 Z"
         id="path82" /></clipPath><clipPath
       clipPathUnits="userSpaceOnUse"
       id="clipPath90"><path
         d="M 4206.05,295.629 H 0 V 3895.72 h 4206.05 z"
         id="path88" /></clipPath></defs><sodipodi:namedview
     pagecolor="#ffffff"
     bordercolor="#666666"
     borderopacity="1"
     objecttolerance="10"
     gridtolerance="10"
     guidetolerance="10"
     inkscape:pageopacity="0"
     inkscape:pageshadow="2"
     inkscape:window-width="640"
     inkscape:window-height="480"
     id="namedview4" /><g
     id="g10"
     inkscape:groupmode="layer"
     inkscape:label="ink_ext_XXXXXX"
     transform="matrix(1.3333333,0,0,-1.3333333,0,519.42667)"><g
       id="g12"
       transform="scale(0.1)"><path
         d="m 655.613,73.5 h 6.91 c 10.176,0 19.801,1.0586 28.864,3.0313 9.062,2.0507 16.972,5.4179 23.781,10.207 6.727,4.793 12.129,11.0508 16.18,18.7027 4.043,7.661 6.058,17.18 6.058,28.539 0,11.219 -1.965,20.782 -5.968,28.739 -3.965,7.972 -9.5,14.16 -16.625,18.64 -7.094,4.539 -14.95,7.86 -23.516,9.993 -8.602,2.078 -18.172,3.078 -28.774,3.078 h -6.91 z M 635.93,212.289 h 32.652 c 25.648,0 46.773,-6.719 63.391,-20.16 16.75,-13.297 25.101,-32.41 25.101,-57.348 0,-25.59 -8.301,-45.1521 -24.875,-58.7693 C 715.598,62.4883 694.188,55.7188 667.949,55.7188 H 635.93 V 212.289"
         style="fill:#211d1d;fill-opacity:1;fill-rule:nonzero;stroke:none"
         id="path14" /><path
         d="m 841.801,115.25 c -1.153,7.52 -3.985,13.461 -8.692,17.781 -4.66,4.36 -10.765,6.598 -18.304,6.598 -3.602,0 -7,-0.629 -10.133,-1.82 -3.156,-1.168 -5.922,-2.86 -8.359,-5.047 -2.454,-2.242 -4.458,-4.821 -6.094,-7.832 -1.598,-2.969 -2.66,-6.2 -3.199,-9.68 z m -55.852,-14.102 c 0.25,-8.6871 3.055,-16.2769 8.367,-22.6675 5.442,-6.3203 12.469,-9.461 21.133,-9.461 6.824,0 12.43,1.5 16.824,4.6289 4.395,3.1133 8.559,7.8516 12.461,14.2618 l 15.903,-8.9883 c -4.61,-8.2735 -10.93,-14.793 -18.934,-19.5 -8.062,-4.7227 -16.859,-7.0625 -26.465,-7.0625 -14.668,0 -26.379,4.8203 -35.152,14.5312 -8.668,9.8711 -12.965,22.0508 -12.965,36.5704 0,15.348 4.102,27.961 12.352,37.777 8.086,9.711 19.871,14.543 35.332,14.543 15.078,0 26.429,-4.832 34.121,-14.543 7.804,-9.668 11.711,-22.066 11.711,-37.179 v -2.911 h -74.688"
         style="fill:#211d1d;fill-opacity:1;fill-rule:nonzero;stroke:none"
         id="path16" /><path
         d="m 916.059,130.648 c -2.805,5.672 -6.969,8.524 -12.539,8.524 -2.657,0 -5.024,-0.934 -7.106,-2.781 -2.09,-1.86 -3.144,-4.129 -3.144,-6.782 0,-2.488 0.8,-4.629 2.394,-6.347 1.609,-1.703 3.797,-3.301 6.59,-4.813 1.82,-0.859 3.207,-1.539 4.195,-1.969 0.977,-0.531 2.563,-1.25 4.805,-2.21 1.109,-0.54 2.109,-1.04 2.953,-1.231 0.793,-0.301 1.41,-0.609 1.852,-0.848 6.976,-3.152 12.484,-6.851 16.523,-11.043 4.043,-4.1089 6.09,-9.6988 6.09,-16.5972 0,-9.1406 -3.348,-16.832 -10.055,-23.0313 -6.543,-6.1406 -14.41,-9.1601 -23.633,-9.1601 -3.773,0 -7.398,0.5195 -10.871,1.5508 -3.5,1.0507 -6.758,2.4687 -9.754,4.3906 -3.007,1.8281 -5.629,4.1094 -7.941,6.8086 -2.285,2.7617 -4.105,5.75 -5.32,9.0625 l 16.093,7.289 c 4.618,-8.3203 10.524,-12.4414 17.793,-12.4414 2.954,0 5.649,0.7305 8.141,2.3399 2.492,1.5898 4.367,3.5703 5.555,6.039 1.172,2.4336 1.422,5 0.734,7.9024 -0.699,2.8203 -2.848,5.5195 -6.492,8.0078 l -18.438,9.7304 c -3.183,1.672 -5.968,3.301 -8.332,5 -2.39,1.641 -4.336,3.422 -5.867,5.231 -1.555,1.941 -2.687,4.011 -3.449,6.261 -0.77,2.27 -1.164,4.949 -1.164,8.008 0,7.891 2.812,14.539 8.402,19.981 5.543,5.519 12.379,8.261 20.477,8.261 12.273,0 21.191,-5.679 26.765,-17.019 l -15.257,-8.114"
         style="fill:#211d1d;fill-opacity:1;fill-rule:nonzero;stroke:none"
         id="path18" /><path
         d="M 980.086,55.7188 H 961.23 v 97.2032 h 18.856 z m 3.547,141.6012 c 0,-3.48 -1.246,-6.449 -3.762,-8.922 -2.504,-2.5 -5.601,-3.718 -9.187,-3.718 -3.672,0 -6.715,1.218 -9.227,3.718 -2.488,2.473 -3.773,5.442 -3.773,8.922 0,3.641 1.285,6.668 3.773,9.309 2.512,2.519 5.555,3.793 9.227,3.793 3.586,0 6.683,-1.274 9.187,-3.793 2.516,-2.641 3.762,-5.668 3.762,-9.309"
         style="fill:#211d1d;fill-opacity:1;fill-rule:nonzero;stroke:none"
         id="path20" /><path
         d="m 1052.24,69.0195 c 9.93,0 17.67,3.3399 23.22,10.1407 5.71,6.9296 8.57,15.289 8.57,25.1098 0,9.699 -2.86,17.949 -8.57,24.75 -5.55,6.73 -13.29,10.152 -23.22,10.152 -9.32,0 -16.86,-3.461 -22.57,-10.383 -5.6,-6.789 -8.39,-14.988 -8.39,-24.519 0,-9.8208 2.79,-18.1606 8.39,-24.8989 5.71,-6.9414 13.25,-10.3516 22.57,-10.3516 z m 49.6,-11.4804 c 0,-18.2696 -3.5,-32.4375 -10.46,-42.5977 C 1084.36,5.01172 1071.96,0 1054.12,0 c -13.79,0 -25.09,3.94141 -33.88,11.8594 -8.65,7.9219 -13.12,18.6094 -13.39,32.2109 h 18.81 c 0,-8.75 2.73,-15.4805 8.07,-20.3008 5.37,-4.7695 12.46,-7.1601 21.24,-7.1601 10.75,0 18.1,3.1719 22.08,9.3906 3.98,6.2617 5.93,14.9883 5.93,26.3594 v 18.5 h -0.41 c -3.9,-5.8477 -8.75,-10.3281 -14.52,-13.5977 -5.81,-3.2734 -12.03,-4.9023 -18.73,-4.9023 -14.53,0 -25.96,5.0312 -34.32,15.1406 -8.38,10.1602 -12.54,22.5703 -12.54,37.41 0,13.981 4.24,25.871 12.74,35.719 8.54,10.09 19.59,15.152 33.3,15.152 14.36,0 25.72,-6.543 34.07,-19.5 h 0.41 v 16.641 h 18.86 V 57.5391"
         style="fill:#211d1d;fill-opacity:1;fill-rule:nonzero;stroke:none"
         id="path22" /><path
         d="m 1145.15,139.789 h 0.39 c 2.77,5.16 6.82,9.102 12.15,11.859 5.3,2.793 11.06,4.133 17.35,4.133 6.4,0 11.82,-0.961 16.34,-2.859 4.43,-1.973 8.04,-4.731 10.74,-8.363 2.72,-3.579 4.7,-7.989 5.88,-13.168 1.18,-5.2 1.77,-11.129 1.77,-17.762 V 55.7188 h -18.82 v 55.6522 c 0,9.559 -1.42,16.57 -4.2,20.961 -2.79,4.578 -8.57,6.84 -17.36,6.84 -3.21,0 -5.94,-0.274 -8.15,-0.934 -2.24,-0.597 -4.2,-1.476 -5.86,-2.687 -1.67,-1.211 -3.07,-2.563 -4.2,-4.031 -1.07,-1.54 -2.15,-3.192 -3.12,-5.04 -0.41,-0.941 -0.8,-2.218 -1.18,-3.71 -0.34,-1.532 -0.64,-3.079 -0.9,-4.668 -0.29,-1.622 -0.54,-3.223 -0.64,-4.832 -0.13,-1.559 -0.19,-2.872 -0.19,-3.77 v -9.148 -44.6332 h -18.84 v 97.2032 h 18.84 v -13.133"
         style="fill:#211d1d;fill-opacity:1;fill-rule:nonzero;stroke:none"
         id="path24" /><path
         d="m 1343.45,69.0195 c 9.9,0 17.62,3.3399 23.2,10.1407 5.73,6.9296 8.58,15.289 8.58,25.1098 0,9.699 -2.85,17.949 -8.58,24.75 -5.58,6.73 -13.3,10.152 -23.2,10.152 -9.35,0 -16.9,-3.461 -22.62,-10.383 -5.56,-6.789 -8.38,-14.988 -8.38,-24.519 0,-9.8208 2.82,-18.1606 8.38,-24.8989 5.72,-6.9414 13.27,-10.3516 22.62,-10.3516 z m -48.74,166.9685 h 18.79 v -99.289 h 0.43 c 8.66,12.723 20.04,19.082 34.13,19.082 13.64,0 24.72,-5.062 33.26,-15.152 8.49,-9.848 12.75,-21.738 12.75,-35.719 0,-14.8397 -4.19,-27.2498 -12.54,-37.41 -8.38,-10.1094 -19.83,-15.1406 -34.33,-15.1406 -6.68,0 -12.95,1.6289 -18.73,4.9023 -5.77,3.2696 -10.62,7.75 -14.54,13.5977 h -0.43 V 55.7188 h -18.79 V 235.988"
         style="fill:#211d1d;fill-opacity:1;fill-rule:nonzero;stroke:none"
         id="path26" /><path
         d="m 1396.78,152.922 h 21.96 l 33.06,-61.7032 30.71,61.7032 h 21.17 L 1424.39,0 h -21.33 l 38.51,72.2891 -44.79,80.6329"
         style="fill:#211d1d;fill-opacity:1;fill-rule:nonzero;stroke:none"
         id="path28" /><path
         d="m 1634.85,176.16 -28.05,-63.351 h 56.08 z m -36.19,-81.1912 -17.99,-39.25 h -21.12 l 75.3,163.1912 75.32,-163.1912 h -21.12 l -18.02,39.25 h -72.37"
         style="fill:#211d1d;fill-opacity:1;fill-rule:nonzero;stroke:none"
         id="path30" /><path
         d="m 1740.88,55.7188 h -18.8 V 235.988 h 18.8 V 55.7188"
         style="fill:#211d1d;fill-opacity:1;fill-rule:nonzero;stroke:none"
         id="path32" /><path
         d="m 1787.33,55.7188 h -18.81 V 235.988 h 18.81 V 55.7188"
         style="fill:#211d1d;fill-opacity:1;fill-rule:nonzero;stroke:none"
         id="path34" /><path
         d="m 1858.89,130.051 v -15.602 h -45.78 v 15.602 h 45.78"
         style="fill:#211d1d;fill-opacity:1;fill-rule:nonzero;stroke:none"
         id="path36" /><path
         d="m 1932.1,217.09 c -5.84,2.59 -10.06,3.93 -12.52,3.93 -4.05,0 -7.02,-1.25 -8.79,-3.848 -1.86,-2.543 -3.06,-5.723 -3.8,-9.434 -0.38,-2.769 -0.65,-4.957 -0.72,-6.609 -0.09,-1.551 -0.11,-3.758 -0.11,-6.52 v -41.687 h 25.94 V 135.43 h -25.94 V 55.7188 h -18.8 V 135.43 h -8.59 v 17.492 h 8.59 v 47.316 c 0,25.492 10.51,38.211 31.57,38.211 4.6,0 8.99,-0.828 13.17,-2.461 V 217.09"
         style="fill:#211d1d;fill-opacity:1;fill-rule:nonzero;stroke:none"
         id="path38" /><path
         d="m 1961.17,137.121 h 0.6 c 2.41,5.777 5.88,10.399 10.5,13.66 4.6,3.34 10.04,5 16.3,5 5.18,0 10.34,-1.57 15.52,-4.769 l -8.59,-17.032 c -3.05,2.661 -6.93,3.918 -11.54,3.918 -9.59,0 -16,-3.867 -19.22,-11.609 -1.39,-3.598 -2.36,-7.199 -2.85,-10.68 -0.46,-3.507 -0.72,-7.57 -0.72,-12.148 V 55.7188 h -18.8 v 97.2032 h 18.8 v -15.801"
         style="fill:#211d1d;fill-opacity:1;fill-rule:nonzero;stroke:none"
         id="path40" /><path
         d="m 2081.7,115.25 c -1.14,7.52 -4.02,13.461 -8.74,17.781 -4.66,4.36 -10.74,6.598 -18.27,6.598 -3.59,0 -7.01,-0.629 -10.12,-1.82 -3.14,-1.168 -5.93,-2.86 -8.38,-5.047 -2.44,-2.242 -4.46,-4.821 -6.05,-7.832 -1.6,-2.969 -2.71,-6.2 -3.28,-9.68 z m -55.88,-14.102 c 0.28,-8.6871 3.03,-16.2769 8.37,-22.6675 5.47,-6.3203 12.48,-9.461 21.12,-9.461 6.87,0 12.48,1.5 16.86,4.6289 4.39,3.1133 8.53,7.8516 12.47,14.2618 l 15.87,-8.9883 c -4.6,-8.2735 -10.9,-14.793 -18.93,-19.5 -8,-4.7227 -16.85,-7.0625 -26.44,-7.0625 -14.67,0 -26.37,4.8203 -35.15,14.5312 -8.67,9.8711 -13,22.0508 -13,36.5704 0,15.348 4.13,27.961 12.38,37.777 8.06,9.711 19.86,14.543 35.32,14.543 15.08,0 26.46,-4.832 34.13,-14.543 7.8,-9.668 11.69,-22.066 11.69,-37.179 v -2.911 h -74.69"
         style="fill:#211d1d;fill-opacity:1;fill-rule:nonzero;stroke:none"
         id="path42" /><path
         d="m 2183.81,115.25 c -1.14,7.52 -4.03,13.461 -8.71,17.781 -4.7,4.36 -10.81,6.598 -18.26,6.598 -3.68,0 -7.08,-0.629 -10.18,-1.82 -3.14,-1.168 -5.93,-2.86 -8.38,-5.047 -2.44,-2.242 -4.5,-4.821 -6.08,-7.832 -1.61,-2.969 -2.72,-6.2 -3.24,-9.68 z m -55.9,-14.102 c 0.28,-8.6871 3.12,-16.2769 8.39,-22.6675 5.42,-6.3203 12.47,-9.461 21.12,-9.461 6.81,0 12.44,1.5 16.82,4.6289 4.4,3.1133 8.58,7.8516 12.47,14.2618 l 15.9,-8.9883 c -4.64,-8.2735 -10.93,-14.793 -18.95,-19.5 -8,-4.7227 -16.87,-7.0625 -26.47,-7.0625 -14.62,0 -26.3,4.8203 -35.15,14.5312 -8.63,9.8711 -12.93,22.0508 -12.93,36.5704 0,15.348 4.1,27.961 12.31,37.777 8.06,9.711 19.9,14.543 35.42,14.543 15.01,0 26.4,-4.832 34.03,-14.543 7.83,-9.668 11.74,-22.066 11.74,-37.179 v -2.911 h -74.7"
         style="fill:#211d1d;fill-opacity:1;fill-rule:nonzero;stroke:none"
         id="path44" /><path
         d="m 2263.49,130.051 v -15.602 h -45.79 v 15.602 h 45.79"
         style="fill:#211d1d;fill-opacity:1;fill-rule:nonzero;stroke:none"
         id="path46" /><path
         d="m 2330.4,69.0195 c 9.93,0 17.67,3.3399 23.23,10.1407 5.7,6.9296 8.59,15.289 8.59,25.1098 0,9.699 -2.89,17.949 -8.59,24.75 -5.56,6.73 -13.3,10.152 -23.23,10.152 -9.33,0 -16.85,-3.461 -22.58,-10.383 -5.6,-6.789 -8.37,-14.988 -8.37,-24.519 0,-9.8208 2.77,-18.1606 8.37,-24.8989 5.73,-6.9414 13.25,-10.3516 22.58,-10.3516 z m 30.79,1.8399 h -0.42 c -3.95,-5.8477 -8.74,-10.3281 -14.55,-13.5977 -5.8,-3.2734 -12.04,-4.9023 -18.73,-4.9023 -14.54,0 -25.94,5.0312 -34.32,15.1406 -8.34,10.1602 -12.52,22.5703 -12.52,37.41 0,13.981 4.24,25.871 12.77,35.719 8.48,10.09 19.53,15.152 33.22,15.152 14.09,0 25.45,-6.359 34.13,-19.082 h 0.42 v 99.289 H 2380 V 55.7188 h -18.81 v 15.1406"
         style="fill:#211d1d;fill-opacity:1;fill-rule:nonzero;stroke:none"
         id="path48" /><path
         d="m 2414.49,104.059 c 0,-8.9574 3.32,-16.9301 9.83,-23.8793 6.45,-6.6797 14.36,-9.9492 23.66,-9.9492 9.19,0 17.12,3.2695 23.65,9.9492 6.56,6.9492 9.85,14.9219 9.85,23.8793 0,9.171 -3.29,17.113 -9.85,23.882 -6.53,6.637 -14.46,9.957 -23.65,9.957 -9.3,0 -17.21,-3.32 -23.66,-9.957 -6.51,-6.769 -9.83,-14.711 -9.83,-23.882 z m -3.77,36.832 c 10.2,9.89 22.64,14.89 37.26,14.89 14.63,0 27.01,-5 37.02,-14.89 10.17,-10 15.27,-22.289 15.27,-36.832 0,-14.5199 -5.1,-26.7699 -15.27,-36.7582 -10.01,-9.9805 -22.39,-14.9414 -37.02,-14.9414 -14.62,0 -27.06,4.9609 -37.26,14.9414 -10,9.9883 -15,22.2383 -15,36.7582 0,14.543 5,26.832 15,36.832"
         style="fill:#211d1d;fill-opacity:1;fill-rule:nonzero;stroke:none"
         id="path50" /><path
         d="m 2550.92,90.9688 28.82,67.2932 28.69,-67.2932 28.45,61.9532 h 21.33 l -49.78,-100.5626 -28.69,64.9926 -28.82,-64.9926 -49.78,100.5626 h 21.35 l 28.43,-61.9532"
         style="fill:#211d1d;fill-opacity:1;fill-rule:nonzero;stroke:none"
         id="path52" /><path
         d="m 2686.49,139.789 h 0.36 c 2.84,5.16 6.86,9.102 12.19,11.859 5.29,2.793 11.07,4.133 17.35,4.133 6.41,0 11.86,-0.961 16.3,-2.859 4.46,-1.973 8.05,-4.731 10.77,-8.363 2.73,-3.579 4.67,-7.989 5.88,-13.168 1.2,-5.2 1.75,-11.129 1.75,-17.762 V 55.7188 h -18.8 v 55.6522 c 0,9.559 -1.39,16.57 -4.2,20.961 -2.81,4.578 -8.59,6.84 -17.4,6.84 -3.14,0 -5.85,-0.274 -8.14,-0.934 -2.2,-0.597 -4.16,-1.476 -5.81,-2.687 -1.68,-1.211 -3.1,-2.563 -4.22,-4.031 -1.13,-1.54 -2.16,-3.192 -3.14,-5.04 -0.38,-0.941 -0.8,-2.218 -1.13,-3.71 -0.34,-1.532 -0.63,-3.079 -0.98,-4.668 -0.23,-1.622 -0.43,-3.223 -0.62,-4.832 -0.09,-1.559 -0.16,-2.872 -0.16,-3.77 v -9.148 -44.6332 h -18.88 v 97.2032 h 18.88 v -13.133"
         style="fill:#211d1d;fill-opacity:1;fill-rule:nonzero;stroke:none"
         id="path54" /><path
         d="M 2796.71,55.7188 H 2777.9 V 235.988 h 18.81 V 55.7188"
         style="fill:#211d1d;fill-opacity:1;fill-rule:nonzero;stroke:none"
         id="path56" /><path
         d="m 2833.54,104.059 c 0,-8.9574 3.3,-16.9301 9.82,-23.8793 6.39,-6.6797 14.31,-9.9492 23.66,-9.9492 9.2,0 17.08,3.2695 23.61,9.9492 6.55,6.9492 9.84,14.9219 9.84,23.8793 0,9.171 -3.29,17.113 -9.84,23.882 -6.53,6.637 -14.41,9.957 -23.61,9.957 -9.35,0 -17.27,-3.32 -23.66,-9.957 -6.52,-6.769 -9.82,-14.711 -9.82,-23.882 z m -3.78,36.832 c 10.21,9.89 22.61,14.89 37.26,14.89 14.61,0 26.95,-5 37.01,-14.89 10.22,-10 15.28,-22.289 15.28,-36.832 0,-14.5199 -5.06,-26.7699 -15.28,-36.7582 -10.06,-9.9805 -22.4,-14.9414 -37.01,-14.9414 -14.65,0 -27.05,4.9609 -37.26,14.9414 -10.08,9.9883 -15.08,22.2383 -15.08,36.7582 0,14.543 5,26.832 15.08,36.832"
         style="fill:#211d1d;fill-opacity:1;fill-rule:nonzero;stroke:none"
         id="path58" /><path
         d="m 2978.71,69.0195 c 9.9,0 17.65,3.3399 23.23,10.1407 5.72,6.9296 8.53,15.289 8.53,25.1098 0,9.699 -2.81,17.949 -8.53,24.75 -5.58,6.73 -13.33,10.152 -23.23,10.152 -9.34,0 -16.88,-3.461 -22.59,-10.383 -5.58,-6.789 -8.37,-14.988 -8.37,-24.519 0,-9.8208 2.79,-18.1606 8.37,-24.8989 5.71,-6.9414 13.25,-10.3516 22.59,-10.3516 z m 49.57,-13.3007 h -18.82 v 15.1406 h -0.41 c -8.34,-12.3399 -19.48,-18.5 -33.3,-18.5 -14.33,0 -25.77,5.0312 -34.34,15.1406 -8.28,10.1602 -12.44,22.5703 -12.44,37.41 0,13.981 4.18,25.871 12.74,35.719 8.52,10.09 19.65,15.152 33.43,15.152 13.95,0 25.27,-6.359 33.91,-19.082 h 0.41 v 16.223 h 18.82 V 55.7188"
         style="fill:#211d1d;fill-opacity:1;fill-rule:nonzero;stroke:none"
         id="path60" /><path
         d="m 3095.01,69.0195 c 9.92,0 17.63,3.3399 23.23,10.1407 5.7,6.9296 8.56,15.289 8.56,25.1098 0,9.699 -2.86,17.949 -8.56,24.75 -5.6,6.73 -13.31,10.152 -23.23,10.152 -9.32,0 -16.87,-3.461 -22.61,-10.383 -5.55,-6.789 -8.37,-14.988 -8.37,-24.519 0,-9.8208 2.82,-18.1606 8.37,-24.8989 5.74,-6.9414 13.29,-10.3516 22.61,-10.3516 z m 30.75,1.8399 h -0.44 c -3.87,-5.8477 -8.74,-10.3281 -14.51,-13.5977 -5.75,-3.2734 -12.02,-4.9023 -18.75,-4.9023 -14.51,0 -25.89,5.0312 -34.24,15.1406 -8.4,10.1602 -12.54,22.5703 -12.54,37.41 0,13.981 4.21,25.871 12.72,35.719 8.51,10.09 19.55,15.152 33.24,15.152 14.1,0 25.43,-6.359 34.08,-19.082 h 0.44 v 99.289 h 18.87 V 55.7188 h -18.87 v 15.1406"
         style="fill:#211d1d;fill-opacity:1;fill-rule:nonzero;stroke:none"
         id="path62" /><path
         d="m 3198.55,64.4102 c 0,-3.3086 -1.15,-6.2305 -3.53,-8.5196 -2.4,-2.3203 -5.22,-3.5312 -8.59,-3.5312 -3.34,0 -6.23,1.2109 -8.58,3.5312 -2.35,2.2891 -3.58,5.211 -3.58,8.5196 0,3.2187 1.23,6.0312 3.58,8.4101 2.35,2.4297 5.24,3.6289 8.58,3.6289 3.37,0 6.19,-1.1992 8.59,-3.6289 2.38,-2.3789 3.53,-5.1914 3.53,-8.4101"
         style="fill:#211d1d;fill-opacity:1;fill-rule:nonzero;stroke:none"
         id="path64" /><path
         d="m 3301.54,125.238 c -7.89,8.742 -17.21,13.121 -28.09,13.121 -9.04,0 -16.8,-3.41 -23.21,-10.199 -6.28,-6.922 -9.39,-14.93 -9.39,-23.89 0,-10.0981 3.11,-18.3403 9.39,-24.6684 6.53,-6.543 14.71,-9.8008 24.47,-9.8008 10.05,0 18.94,4.3203 26.83,12.8789 V 58.832 c -8.16,-4.3125 -17.13,-6.4726 -27.01,-6.4726 -14.52,0 -26.96,4.9023 -37.29,14.7695 -10.14,9.6524 -15.24,21.8125 -15.24,36.3321 0,14.988 5.1,27.43 15.24,37.43 10.17,9.89 22.98,14.89 38.29,14.89 10.07,0 18.71,-2.109 26.01,-6.422 v -24.121"
         style="fill:#211d1d;fill-opacity:1;fill-rule:nonzero;stroke:none"
         id="path66" /><path
         d="m 3331.82,104.059 c 0,-8.9574 3.27,-16.9301 9.84,-23.8793 6.4,-6.6797 14.31,-9.9492 23.66,-9.9492 9.19,0 17.05,3.2695 23.61,9.9492 6.58,6.9492 9.81,14.9219 9.81,23.8793 0,9.171 -3.23,17.113 -9.81,23.882 -6.56,6.637 -14.42,9.957 -23.61,9.957 -9.35,0 -17.26,-3.32 -23.66,-9.957 -6.57,-6.769 -9.84,-14.711 -9.84,-23.882 z m -3.79,36.832 c 10.22,9.89 22.61,14.89 37.29,14.89 14.62,0 27.01,-5 37.02,-14.89 10.19,-10 15.27,-22.289 15.27,-36.832 0,-14.5199 -5.08,-26.7699 -15.27,-36.7582 -10.01,-9.9805 -22.4,-14.9414 -37.02,-14.9414 -14.68,0 -27.07,4.9609 -37.29,14.9414 -10,9.9883 -15.04,22.2383 -15.04,36.7582 0,14.543 5.04,26.832 15.04,36.832"
         style="fill:#211d1d;fill-opacity:1;fill-rule:nonzero;stroke:none"
         id="path68" /><path
         d="m 3452.96,140.629 h 0.4 c 2.82,4.422 6.48,8.07 11.16,10.902 4.68,2.891 9.62,4.25 14.75,4.25 12.18,0 21.58,-5.711 28.26,-17.211 3.08,5.25 7.29,9.442 12.69,12.559 5.31,3.109 11.17,4.652 17.4,4.652 21.66,0 32.46,-13.972 32.46,-41.98 V 55.7188 h -18.8 v 54.9922 c 0,2.519 -0.12,4.988 -0.35,7.391 -0.16,2.386 -0.56,4.789 -1.14,7.058 -0.54,2.262 -1.39,4.371 -2.52,6.36 -1.1,1.921 -2.65,3.66 -4.61,5.179 -2.48,1.66 -5.74,2.473 -9.56,2.473 -3.97,0 -7.28,-0.813 -10.06,-2.473 -2.67,-1.519 -4.68,-3.437 -6.19,-5.73 -1.48,-2.258 -2.61,-5.168 -3.43,-8.66 -0.8,-3.418 -1.39,-6.571 -1.6,-9.27 -0.21,-2.789 -0.31,-6 -0.31,-9.578 V 55.7188 h -18.79 v 51.4802 c 0,3.289 -0.11,6.031 -0.26,8.281 -0.14,2.27 -0.52,4.969 -1.28,8.329 -0.66,3.613 -1.56,6.242 -2.67,7.902 -1.15,1.898 -2.88,3.66 -5.24,5.199 -2.38,1.469 -5.26,2.262 -8.56,2.262 -9.64,0 -15.82,-4.152 -18.59,-12.442 -1.31,-3.921 -2.11,-7.558 -2.55,-11.031 -0.41,-3.461 -0.61,-7.551 -0.61,-12.238 V 55.7188 h -18.84 v 97.2032 h 18.84 v -12.293"
         style="fill:#211d1d;fill-opacity:1;fill-rule:nonzero;stroke:none"
         id="path70" /><path
         d="m 197.129,113.039 c 88.851,0 177.609,0 266.457,0 8.055,0 8.055,12.352 0,12.352 -88.848,0 -177.606,0 -266.457,0 -8.043,0 -8.043,-12.352 0,-12.352 v 0"
         style="fill:#211d1d;fill-opacity:1;fill-rule:nonzero;stroke:none"
         id="path72" /><path
         d="m 3742.46,113.039 c 88.79,0 177.61,0 266.46,0 8.04,0 8.04,12.352 0,12.352 -88.85,0 -177.67,0 -266.46,0 -8.02,0 -8.02,-12.352 0,-12.352 v 0"
         style="fill:#211d1d;fill-opacity:1;fill-rule:nonzero;stroke:none"
         id="path74" /><path
         d="M 4206.05,295.629 H 0 V 3895.72 H 4206.05 V 295.629"
         style="fill:#16161f;fill-opacity:1;fill-rule:nonzero;stroke:none"
         id="path76" /><g
         id="g78"><g
           id="g80"
           clip-path="url(#clipPath84)"><g
             id="g86"
             clip-path="url(#clipPath90)"><path
               d="m 2232.55,2672.77 c 42.83,0.84 85.66,1.69 128.49,2.54 7.9,0.16 19.05,5.38 15.18,12.26 -1.29,2.32 -3.96,3.43 -6.44,4.39 -29.88,11.51 -61.36,23.23 -93.11,18.94 -13.19,-1.79 -29.65,-5.07 -37.29,5.84 -2.33,3.32 -3.26,7.44 -5.47,10.83 -7.06,10.8 -22.9,9.89 -35.63,7.72 -1.89,12.08 -3.8,24.16 -5.7,36.25 -0.48,3.06 -0.99,6.21 -2.64,8.84 -5.64,9.04 -20.78,5.54 -26.63,-3.36 -5.85,-8.9 -5.65,-20.28 -6.8,-30.87 -1.15,-10.59 -4.99,-22.41 -14.77,-26.62 -3.2,-1.36 -7.14,-1.68 -9.96,0.34 -2.12,1.52 -3.25,4.06 -5.09,5.9 -7.54,7.56 -20.61,-0.57 -25.42,-10.09 -4.82,-9.53 -7.26,-21.47 -16.55,-26.71 -5.53,-3.12 -12.23,-3.02 -18.4,-4.49 -6.18,-1.47 -12.73,-5.84 -12.73,-12.18 0,-6.56 7.37,-11.05 13.92,-10.75 6.56,0.32 12.43,3.88 18.29,6.84 48.75,24.59 96.55,3.38 146.75,4.38"
               style="fill:#f1a5d2;fill-opacity:1;fill-rule:nonzero;stroke:none"
               id="path92" /><path
               d="m 1778.88,2939.48 c 0.58,0.45 1.11,0.98 1.59,1.59 3.64,4.55 2,11.66 -2.03,15.88 -7.33,7.67 -20.6,10.54 -30.6,12.43 -112.32,21.23 -213.48,12.55 -309.15,-55.15 -105.72,-74.82 -177.33,-212.17 -150.43,-342.72 21.66,-105.13 88.52,-212.92 182.62,-268.01 94.64,-55.4 236.66,-62.71 335.59,-15.49 54.73,26.13 100.67,64.93 141.64,108.69 5.3,5.66 10.65,11.93 11.82,19.6 1.16,7.66 -3.82,16.74 -11.57,17.03 -6.41,0.24 -11.43,-5.18 -15.69,-9.98 -15.77,-17.8 -34.15,-33.28 -54.38,-45.77 -68.48,-42.28 -157.07,-47.6 -232.29,-18.98 -75.22,28.62 -136.54,89.24 -171.34,161.81 -54.52,113.71 -43.39,250.94 48.38,342.28 58.44,58.17 154.09,97.75 236.67,76.22 6.4,-1.67 14.28,-3.25 19.17,0.57"
               style="fill:#b66f1d;fill-opacity:1;fill-rule:nonzero;stroke:none"
               id="path94" /><path
               d="m 1246.26,2546.91 c 22.19,4.31 49.9,-0.68 68.47,14.87 11.38,9.53 15.87,24.78 24.11,37.12 14.25,21.36 41.13,33.35 66.56,30.08 -12.28,2.87 -24.79,4.8 -37.38,5.46 -29.78,1.58 -60.55,-2.91 -88.82,6.55 -30.9,10.33 -55.31,36.28 -87.08,43.46 -26.15,5.91 -55.1,-2.7 -73.78,-21.94 -8.7,-8.96 -18.57,-21.21 -30.63,-17.95 -8.02,2.16 -12.5,10.48 -18.89,15.78 -12.53,10.42 -34,6.9 -42.56,-6.96 -2.73,-4.42 -4.31,-9.66 -8.07,-13.25 -12.16,-11.6 -31.831,3.27 -48.51,1.21 -21.133,-2.61 -30.789,-31.22 -51.664,-35.41 -10.789,-2.17 -21.641,2.9 -32.625,3.57 -31.161,1.9 -53.45,-30.12 -83.137,-39.78 -9.121,-2.97 -18.793,-3.74 -28.356,-4.49 -21.375,-1.68 -42.746,-3.37 -64.121,-5.05 -6.652,-0.53 -13.968,-1.36 -18.504,-6.25 -6.605,-7.12 -3.285,-19.55 4.356,-25.55 7.637,-6.01 17.926,-7.18 27.633,-7.61 24.101,-1.06 48.343,1.09 71.883,6.37 7.421,1.66 15.402,3.59 22.406,0.65 4.527,-1.9 7.996,-5.59 11.676,-8.83 19.472,-17.13 48.5,-22.59 72.871,-13.7 16.144,5.88 30.035,17.43 46.738,21.47 40.269,9.74 81.134,-26.67 121.374,-16.83 9.48,2.31 18.33,7.14 28.03,8.22 15.69,1.74 30.49,-6.47 45.03,-12.64 1.93,-0.82 3.95,-1.4 5.9,-2.15 11.95,4.3 23.48,9.28 34.19,15.47 20.53,11.84 39.07,23.48 62.9,28.11"
               style="fill:#f1a5d2;fill-opacity:1;fill-rule:nonzero;stroke:none"
               id="path96" /><path
               d="m 2165.72,2485.69 c -24.77,-5.37 -51.58,-0.69 -73.07,12.74 -16.84,10.53 -32.44,26.81 -52.29,26.22 -8.34,-0.25 -16.3,-3.6 -24.61,-4.4 -35.67,-3.46 -58.72,37.52 -91.95,50.94 -47.44,19.17 -102.24,-21.87 -151.03,-6.46 -23.25,7.34 -40.61,26.22 -60.16,40.79 -19.55,14.56 -46.39,25.17 -67.83,13.57 -4.72,-2.56 -9.07,-6.14 -14.35,-7.11 -15.19,-2.78 -24.38,15.75 -29.39,30.36 -6.2,18.05 -14.12,35.5 -23.63,52.04 -6.6,11.48 -21.42,23.74 -31,14.6 -7.35,-7.02 -3.06,-20.69 -9.85,-28.25 -10.43,-11.62 -30.45,4.18 -44.93,-1.68 -17.25,-6.99 -10.46,-34.74 -22.45,-48.98 -14.02,-16.65 -40.28,-4.72 -61.76,-1.25 -0.67,0.1 -1.35,0.08 -2.02,0.16 -25.43,3.27 -52.31,-8.72 -66.56,-30.08 -8.24,-12.34 -12.73,-27.59 -24.11,-37.12 -18.57,-15.55 -46.28,-10.56 -68.47,-14.87 -23.83,-4.63 -42.37,-16.27 -62.9,-28.11 -10.71,-6.19 -22.24,-11.17 -34.19,-15.47 -39.44,-14.2 -84.01,-20.09 -123.34,-29.61 -15.05,-3.64 -31.826,-8.56 -39.103,-22.22 44.173,1.43 88.343,2.85 132.523,4.28 45.73,1.48 91.47,2.95 137.21,4.04 33.96,0.81 67.92,1.4 101.88,1.78 28.53,0.32 57.44,0.43 85.05,-6.75 7.87,-2.05 15.68,-4.69 23.8,-5 18.39,-0.72 34.87,10.41 52.48,15.75 41.39,12.54 84.8,-7.41 127.7,-12.87 44.46,-5.66 89.86,4.46 134.25,-1.69 22.63,-3.14 44.58,-10.47 67.33,-12.61 35.93,-3.38 71.6,6.29 107.16,12.44 55.88,9.65 113.24,10.66 169.43,2.96 11.88,-1.62 24.73,-3.47 35.23,2.33 10.49,5.8 14.95,22.92 4.95,29.53"
               style="fill:#f1a5d2;fill-opacity:1;fill-rule:nonzero;stroke:none"
               id="path98" /><path
               d="m 3667.27,2618.22 -68.68,109.38 -241.67,91.59 -228.95,27.98 -50.88,50.87 35.61,71.23 -66.14,175.53 89.04,172.99 -17.81,96.67 -284.92,157.72 48.34,-137.38 -132.28,-386.66 66.14,-139.92 c 0,0 -63.6,-86.49 -66.14,-78.86 -2.54,7.63 -142.46,114.48 -142.46,114.48 l 142.46,104.3"
               style="fill:none;stroke:#ffffff;stroke-width:8.79583;stroke-linecap:butt;stroke-linejoin:miter;stroke-miterlimit:10;stroke-dasharray:none;stroke-opacity:1"
               id="path100" /><path
               d="m 2745.96,2802.4 c 28.29,0 28.34,43.98 0,43.98 -28.31,0 -28.35,-43.98 0,-43.98 v 0"
               style="fill:#ffffff;fill-opacity:1;fill-rule:nonzero;stroke:none"
               id="path102" /><path
               d="m 3048.27,3129.34 c 0.46,0 0.92,0 1.37,0 11.51,0 22.52,10.12 21.99,22 -0.53,11.91 -9.66,21.98 -21.99,21.98 -0.45,0 -0.91,0 -1.37,0 -11.5,0 -22.52,-10.11 -21.99,-21.98 0.54,-11.92 9.67,-22 21.99,-22 v 0"
               style="fill:#ffffff;fill-opacity:1;fill-rule:nonzero;stroke:none"
               id="path104" /><path
               d="m 3594.1,2702.54 c 28.29,0 28.34,43.98 0,43.98 -28.31,0 -28.35,-43.98 0,-43.98 v 0"
               style="fill:#ffffff;fill-opacity:1;fill-rule:nonzero;stroke:none"
               id="path106" /><path
               d="m 2625.09,2928.37 c 0.47,0.9 0.95,1.8 1.42,2.7 5.36,10.18 2.93,24.38 -7.88,30.09 -10.15,5.36 -24.37,2.98 -30.09,-7.89 -0.48,-0.9 -0.95,-1.81 -1.43,-2.71 -5.35,-10.17 -2.92,-24.37 7.89,-30.08 10.15,-5.37 24.37,-2.98 30.09,7.89 v 0"
               style="fill:#ffffff;fill-opacity:1;fill-rule:nonzero;stroke:none"
               id="path108" /><path
               d="m 2878.65,3412.51 c 28.3,0 28.34,43.98 0,43.98 -28.3,0 -28.35,-43.98 0,-43.98 v 0"
               style="fill:#ffffff;fill-opacity:1;fill-rule:nonzero;stroke:none"
               id="path110" /><path
               d="m 3127.67,3423.55 c 0,0.47 0,0.92 0,1.38 0,14.14 -21.99,14.17 -21.99,0 0,-0.46 0,-0.91 0,-1.38 0,-14.14 21.99,-14.16 21.99,0 v 0"
               style="fill:#ffffff;fill-opacity:1;fill-rule:nonzero;stroke:none"
               id="path112" /><path
               d="m 3137.19,3327.85 c -0.45,0 -0.91,0 -1.37,0 -14.15,0 -14.17,-21.99 0,-21.99 0.46,0 0.92,0 1.37,0 14.15,0 14.18,21.99 0,21.99 v 0"
               style="fill:#ffffff;fill-opacity:1;fill-rule:nonzero;stroke:none"
               id="path114" /><path
               d="m 2750.3,3059.13 c -0.46,0 -0.92,0 -1.37,0 -14.15,0 -14.18,-21.99 0,-21.99 0.45,0 0.91,0 1.37,0 14.15,0 14.17,21.99 0,21.99 v 0"
               style="fill:#ffffff;fill-opacity:1;fill-rule:nonzero;stroke:none"
               id="path116" /><path
               d="m 2819.82,2920.2 c -0.45,0 -0.91,0 -1.36,0 -14.15,0 -14.18,-21.99 0,-21.99 0.45,0 0.91,0 1.36,0 14.15,0 14.18,21.99 0,21.99 v 0"
               style="fill:#ffffff;fill-opacity:1;fill-rule:nonzero;stroke:none"
               id="path118" /><path
               d="m 3123.56,2969.39 c 0,0.46 0,0.91 0,1.37 0,14.15 -21.98,14.17 -21.98,0 0,-0.46 0,-0.91 0,-1.37 0,-14.15 21.98,-14.17 21.98,0 v 0"
               style="fill:#ffffff;fill-opacity:1;fill-rule:nonzero;stroke:none"
               id="path120" /><path
               d="m 3072.9,2887.26 c 0.45,0 0.91,0 1.37,0 14.15,0 14.17,21.99 0,21.99 -0.46,0 -0.92,0 -1.37,0 -14.15,0 -14.18,-21.99 0,-21.99 v 0"
               style="fill:#ffffff;fill-opacity:1;fill-rule:nonzero;stroke:none"
               id="path122" /><path
               d="m 3139.98,2850.38 c 0,0.46 0,0.91 0,1.37 0,14.15 -21.99,14.17 -21.99,0 0,-0.46 0,-0.91 0,-1.37 0,-14.15 21.99,-14.17 21.99,0 v 0"
               style="fill:#ffffff;fill-opacity:1;fill-rule:nonzero;stroke:none"
               id="path124" /><path
               d="m 3356.07,2813.4 c 14.15,0 14.17,21.98 0,21.98 -14.15,0 -14.18,-21.98 0,-21.98 v 0"
               style="fill:#ffffff;fill-opacity:1;fill-rule:nonzero;stroke:none"
               id="path126" /><path
               d="m 3669.33,2630.19 c -0.45,0 -0.91,0 -1.37,0 -14.15,0 -14.17,-21.99 0,-21.99 0.46,0 0.92,0 1.37,0 14.15,0 14.17,21.99 0,21.99 v 0"
               style="fill:#ffffff;fill-opacity:1;fill-rule:nonzero;stroke:none"
               id="path128" /><path
               d="m 2833.5,3564.41 c 14.15,0 14.17,21.99 0,21.99 -14.15,0 -14.17,-21.99 0,-21.99 v 0"
               style="fill:#ffffff;fill-opacity:1;fill-rule:nonzero;stroke:none"
               id="path130" /><path
               d="m 3857.06,3549.53 c 0.26,-23.74 6.25,-47.39 17.33,-68.39 32.19,-7.97 64.39,-15.94 96.58,-23.91 -20.9,-13.7 -41.81,-27.41 -62.71,-41.1 -2.03,-1.34 -4.17,-2.79 -5.13,-5.02 -1.1,-2.54 -0.41,-5.44 0.29,-8.11 5.53,-21.2 11.08,-42.39 16.61,-63.59 -16.03,11.68 -32.49,22.77 -49.34,33.25 -5.56,3.47 -11.61,6.98 -18.16,6.66 -5.02,-0.25 -9.62,-2.74 -14.02,-5.17 -23.71,-13.1 -47.42,-26.2 -71.13,-39.3 9.64,25.18 19.29,50.36 28.94,75.55 0.9,2.35 1.82,4.92 1.1,7.33 -0.65,2.18 -2.49,3.76 -4.23,5.21 -19.84,16.45 -39.68,32.9 -59.51,49.35 28.09,12.63 77.42,-10.49 99.42,5.5 11.71,8.5 24.11,58.51 23.96,71.74"
               style="fill:#38999b;fill-opacity:1;fill-rule:nonzero;stroke:none"
               id="path132" /><path
               d="m 2887.42,2139.11 c 20.3,-20.41 40.6,-40.82 60.9,-61.23 0.88,-0.89 1.84,-1.81 3.07,-2.09 6.58,-1.45 31.39,13.22 37.75,16.19 17.02,7.94 34.62,14.64 52.62,20.02 -17.75,-26.82 -35.49,-53.65 -53.23,-80.47 21.22,-21.58 42.45,-43.15 63.68,-64.73 -29.56,4.51 -59.12,9.01 -88.67,13.52 -11.31,-28.95 -22.61,-57.9 -33.92,-86.85 -9.61,32.68 -14.6,66.7 -14.77,100.76 -28.09,2.71 -56.19,5.41 -84.28,8.12 15.32,8.28 30.64,16.55 45.97,24.83 17.32,9.35 29.7,9.91 25.12,30.18 -2.41,10.64 -3.88,21.25 -5.6,32.04 -1.58,9.88 -1.92,42.95 -8.64,49.71"
               style="fill:#ca1f94;fill-opacity:1;fill-rule:nonzero;stroke:none"
               id="path134" /><path
               d="m 1549.71,1547.64 c 5.32,0.85 10.04,-3.23 13.88,-7.02 16.31,-16.07 32.79,-30.36 51.99,-42.99 22.96,22.92 45.46,50.98 74.2,66.7 1.07,-8.08 -3.35,-15.74 -7.21,-22.93 -10.86,-20.17 -13.56,-41.28 -22.5,-62.07 20.87,-19.57 41.74,-39.15 62.62,-58.72 -26.28,1.09 -52.56,2.18 -78.84,3.27 -3.98,0.16 -30.74,-88.02 -33.99,-96.03 3.2,15.37 -0.01,30.76 -4.08,45.62 -2.78,10.18 -5.18,34.51 -11.57,42.32 -7.15,8.74 -28.41,1.57 -39.51,0.79 -13.1,-0.92 -39.67,4.26 -51.07,-0.9 29.22,13.23 56.81,30.09 81.91,50.06 -8.82,-7.02 -35.49,71.24 -37.89,78.1 -0.27,0.79 -0.55,1.68 -0.21,2.45 0.33,0.7 1.08,1.08 2.27,1.35"
               style="fill:#d3198d;fill-opacity:1;fill-rule:nonzero;stroke:none"
               id="path136" /><path
               d="m 2231.84,1797.15 c 12.68,-10.14 26.5,-19.44 42.46,-20.59 33.26,-2.38 41.98,33.82 24.71,56.74 -7.89,10.46 -18.91,18.03 -29.73,25.42 -51.07,34.84 -104.29,67.88 -152.64,106.33 -56.31,44.78 -111.7,91.87 -175.82,125.35 34.54,-29.91 69.09,-59.82 103.63,-89.72 -78.99,47.58 -145.42,113.08 -218.92,168.78 -41.12,31.17 -84.46,59.27 -127.75,87.34 106.35,-90.72 213.59,-180.4 321.71,-269 -41.73,23.31 -83.45,46.62 -125.18,69.93 54.54,-35.69 110.83,-66.59 157.82,-111.72 53.61,-51.5 116.1,-96.21 173.35,-143.66 2.09,-1.74 4.21,-3.48 6.36,-5.2"
               style="fill:#eda5d7;fill-opacity:1;fill-rule:nonzero;stroke:none"
               id="path138" /><path
               d="m 3585.18,3393.92 c 12.68,-10.14 26.5,-19.45 42.46,-20.59 33.26,-2.38 41.98,33.83 24.71,56.74 -7.88,10.46 -18.91,18.03 -29.73,25.41 -51.07,34.85 -104.29,67.9 -152.64,106.34 -56.31,44.78 -111.7,91.87 -175.82,125.35 34.54,-29.91 69.09,-59.81 103.63,-89.72 -78.99,47.59 -145.42,113.07 -218.92,168.78 -41.12,31.17 -84.45,59.27 -127.74,87.34 106.34,-90.72 213.59,-180.4 321.7,-269 -41.72,23.31 -83.45,46.62 -125.18,69.93 54.54,-35.69 110.83,-66.59 157.82,-111.73 53.61,-51.48 116.1,-96.2 173.35,-143.66 2.09,-1.73 4.21,-3.47 6.36,-5.19"
               style="fill:#eda5d7;fill-opacity:1;fill-rule:nonzero;stroke:none"
               id="path140" /><path
               d="m 986.84,3787.06 c 12.68,-10.14 26.49,-19.44 42.46,-20.58 33.26,-2.39 41.97,33.82 24.71,56.73 -7.89,10.46 -18.91,18.04 -29.73,25.42 -51.073,34.84 -104.296,67.89 -152.635,106.33 -56.321,44.79 -111.704,91.87 -175.832,125.35 34.546,-29.91 69.093,-59.81 103.64,-89.72 -79,47.59 -145.426,113.08 -218.922,168.79 -41.125,31.16 -84.457,59.26 -127.75,87.33 106.348,-90.72 213.59,-180.39 321.711,-269 -41.73,23.31 -83.453,46.62 -125.183,69.93 54.539,-35.68 110.828,-66.59 157.82,-111.72 53.605,-51.49 116.098,-96.21 173.351,-143.66 2.09,-1.74 4.211,-3.48 6.36,-5.2"
               style="fill:#eda5d7;fill-opacity:1;fill-rule:nonzero;stroke:none"
               id="path142" /><path
               d="m 3324.52,546.5 c 34.2,-36.93 66,-75.969 98.81,-114.109 16.41,-19.082 33.06,-37.961 50.38,-56.219 12.8,-13.492 27.71,-25.391 31.23,-44.422 -47.7,20.961 -93.41,49.629 -139.41,74.27 -20.93,11.21 -42.06,22.152 -61.62,35.128 -17.9,11.903 -39.2,26.223 -59.76,33.063 18.84,-6.262 38.58,-9.77 58.42,-10.402 -47.21,34.152 -88.9,74.043 -135.18,109.363 -47.47,36.219 -95.18,72.109 -142.56,108.437 -94.55,72.532 -187.93,146.942 -274.66,228.789 -13.86,13.09 -27.56,26.364 -41.06,39.84 39.47,-39.41 94.5,-72.297 140.63,-105.039 49.67,-35.25 99.97,-69.57 150.07,-104.187 98.63,-68.153 192.16,-143.711 292.58,-209.071 5.12,-3.332 10.25,-6.64 15.39,-9.953 7.23,-4.636 14.49,-9.25 21.78,-13.797 -1.68,12.77 -3.36,25.528 -5.04,38.309"
               style="fill:#6acdc3;fill-opacity:1;fill-rule:nonzero;stroke:none"
               id="path144" /><path
               d="m 2346.91,3278.72 c 34.21,-36.92 65.99,-75.96 98.81,-114.1 16.41,-19.08 33.06,-37.97 50.38,-56.23 12.8,-13.48 27.71,-25.39 31.24,-44.42 -47.71,20.96 -93.42,49.64 -139.42,74.28 -20.93,11.21 -42.06,22.14 -61.61,35.14 -17.9,11.88 -39.21,26.21 -59.77,33.04 18.84,-6.26 38.58,-9.77 58.42,-10.39 -47.21,34.14 -88.9,74.05 -135.18,109.35 -47.47,36.22 -95.18,72.11 -142.55,108.45 -94.56,72.54 -187.93,146.93 -274.66,228.79 -13.88,13.08 -27.57,26.36 -41.06,39.84 39.46,-39.41 94.49,-72.3 140.63,-105.04 49.66,-35.25 99.96,-69.58 150.07,-104.2 98.62,-68.14 192.15,-143.71 292.57,-209.05 5.12,-3.34 10.25,-6.65 15.39,-9.96 7.23,-4.65 14.49,-9.25 21.78,-13.81 -1.68,12.77 -3.36,25.54 -5.04,38.31"
               style="fill:#6acdc3;fill-opacity:1;fill-rule:nonzero;stroke:none"
               id="path146" /><path
               d="m 4284.74,2591.79 c 34.2,-36.92 66,-75.96 98.81,-114.1 16.4,-19.08 33.05,-37.97 50.38,-56.22 12.79,-13.49 27.7,-25.4 31.23,-44.43 -47.71,20.96 -93.42,49.63 -139.41,74.28 -20.93,11.2 -42.07,22.14 -61.62,35.13 -17.9,11.89 -39.2,26.22 -59.76,33.05 18.84,-6.26 38.57,-9.77 58.42,-10.4 -47.21,34.15 -88.9,74.05 -135.18,109.36 -47.47,36.22 -95.19,72.11 -142.56,108.45 -94.55,72.53 -187.93,146.93 -274.66,228.79 -13.87,13.09 -27.56,26.36 -41.06,39.84 39.46,-39.41 94.5,-72.31 140.63,-105.05 49.67,-35.24 99.97,-69.57 150.07,-104.19 98.63,-68.14 192.16,-143.71 292.58,-209.06 5.12,-3.33 10.24,-6.64 15.38,-9.95 7.24,-4.65 14.49,-9.26 21.79,-13.81 -1.68,12.77 -3.36,25.54 -5.04,38.31"
               style="fill:#6acdc3;fill-opacity:1;fill-rule:nonzero;stroke:none"
               id="path148" /><path
               d="m 2707.51,1726.39 298.15,-191.05 659.99,-272.1"
               style="fill:none;stroke:#ffffff;stroke-width:11.82;stroke-linecap:butt;stroke-linejoin:miter;stroke-miterlimit:10;stroke-dasharray:none;stroke-opacity:1"
               id="path150" /><path
               d="m 3118.56,1998.49 40.52,-228.68 -153.42,-234.47 -31.84,-286.57 -228.68,-75.27"
               style="fill:none;stroke:#ffffff;stroke-width:11.82;stroke-linecap:butt;stroke-linejoin:miter;stroke-miterlimit:10;stroke-dasharray:none;stroke-opacity:1"
               id="path152" /><path
               d="m 2730.4,1720.6 c 0,0.72 0,1.45 0,2.17 0,11.59 -10.2,22.7 -22.16,22.16 -12.01,-0.53 -22.17,-9.73 -22.17,-22.16 0,-0.72 0,-1.45 0,-2.17 0,-11.59 10.2,-22.7 22.17,-22.16 12,0.54 22.16,9.74 22.16,22.16 v 0"
               style="fill:#ffffff;fill-opacity:1;fill-rule:nonzero;stroke:none"
               id="path154" /><path
               d="m 3133.33,2011.52 c 0,0.72 0,1.44 0,2.17 0,7.98 -6.79,14.77 -14.77,14.77 -8.01,0 -14.78,-6.76 -14.78,-14.77 0,-0.73 0,-1.45 0,-2.17 0,-7.99 6.79,-14.78 14.78,-14.78 8.01,0 14.77,6.76 14.77,14.78 v 0"
               style="fill:#ffffff;fill-opacity:1;fill-rule:nonzero;stroke:none"
               id="path156" /><path
               d="m 3164.15,1753.59 c 19.01,0 19.04,29.55 0,29.55 -19.01,0 -19.05,-29.55 0,-29.55 v 0"
               style="fill:#ffffff;fill-opacity:1;fill-rule:nonzero;stroke:none"
               id="path158" /><path
               d="m 3003.49,1519.12 c 19.02,0 19.05,29.55 0,29.55 -19.01,0 -19.04,-29.55 0,-29.55 v 0"
               style="fill:#ffffff;fill-opacity:1;fill-rule:nonzero;stroke:none"
               id="path160" /><path
               d="m 2970.93,1239.05 c 19.01,0 19.04,29.56 0,29.56 -19.02,0 -19.05,-29.56 0,-29.56 v 0"
               style="fill:#ffffff;fill-opacity:1;fill-rule:nonzero;stroke:none"
               id="path162" /><path
               d="m 2753.83,1163.07 c 19.01,0 19.04,29.55 0,29.55 -19.02,0 -19.05,-29.55 0,-29.55 v 0"
               style="fill:#ffffff;fill-opacity:1;fill-rule:nonzero;stroke:none"
               id="path164" /><path
               d="m 3659.14,1254.25 c 19.01,0 19.05,29.56 0,29.56 -19.01,0 -19.04,-29.56 0,-29.56 v 0"
               style="fill:#ffffff;fill-opacity:1;fill-rule:nonzero;stroke:none"
               id="path166" /><path
               d="m 3812.76,3746.19 298.15,-191.05 659.99,-272.1"
               style="fill:none;stroke:#ffffff;stroke-width:11.82;stroke-linecap:butt;stroke-linejoin:miter;stroke-miterlimit:10;stroke-dasharray:none;stroke-opacity:1"
               id="path168" /><path
               d="m 4223.81,4018.29 40.52,-228.68 -153.42,-234.47 -31.83,-286.57 -228.69,-75.27"
               style="fill:none;stroke:#ffffff;stroke-width:11.82;stroke-linecap:butt;stroke-linejoin:miter;stroke-miterlimit:10;stroke-dasharray:none;stroke-opacity:1"
               id="path170" /><path
               d="m 3835.65,3740.4 c 0,0.73 0,1.45 0,2.17 0,11.59 -10.2,22.7 -22.17,22.16 -12,-0.53 -22.16,-9.73 -22.16,-22.16 0,-0.72 0,-1.44 0,-2.17 0,-11.6 10.2,-22.7 22.16,-22.16 12.01,0.54 22.17,9.74 22.17,22.16 v 0"
               style="fill:#ffffff;fill-opacity:1;fill-rule:nonzero;stroke:none"
               id="path172" /><path
               d="m 4108.74,3538.92 c 19.02,0 19.05,29.55 0,29.55 -19.01,0 -19.04,-29.55 0,-29.55 v 0"
               style="fill:#ffffff;fill-opacity:1;fill-rule:nonzero;stroke:none"
               id="path174" /><path
               d="m 4076.18,3258.86 c 19.01,0 19.05,29.55 0,29.55 -19.01,0 -19.05,-29.55 0,-29.55 v 0"
               style="fill:#ffffff;fill-opacity:1;fill-rule:nonzero;stroke:none"
               id="path176" /><path
               d="m 3859.08,3182.88 c 19.01,0 19.04,29.54 0,29.54 -19.02,0 -19.05,-29.54 0,-29.54 v 0"
               style="fill:#ffffff;fill-opacity:1;fill-rule:nonzero;stroke:none"
               id="path178" /><path
               d="m 1745.95,875.051 c 3.52,-13.391 5.41,-26.789 6.72,-40.192 1.41,-13.398 1.85,-26.82 2.11,-40.23 -0.06,-13.41 -0.32,-26.828 -1.55,-40.238 -1.13,-13.422 -2.85,-26.852 -6.22,-40.289 -3.54,13.386 -5.44,26.789 -6.74,40.199 -1.41,13.398 -1.85,26.808 -2.09,40.219 0.08,13.41 0.34,26.832 1.58,40.25 1.13,13.421 2.84,26.839 6.19,40.281"
               style="fill:#ffffff;fill-opacity:1;fill-rule:nonzero;stroke:none"
               id="path180" /><path
               d="m 1664.66,791.18 c 13.76,3.468 27.49,5.308 41.21,6.558 13.72,1.352 27.44,1.731 41.16,1.942 13.72,-0.121 27.44,-0.442 41.17,-1.731 13.73,-1.179 27.47,-2.961 41.24,-6.379 -13.69,-3.492 -27.42,-5.332 -41.15,-6.582 -13.73,-1.347 -27.48,-1.738 -41.22,-1.91 -13.75,0.133 -27.49,0.461 -41.23,1.754 -13.74,1.188 -27.47,2.949 -41.18,6.348"
               style="fill:#ffffff;fill-opacity:1;fill-rule:nonzero;stroke:none"
               id="path182" /><path
               d="m 1689.29,850.941 c 12.21,-7.203 23.27,-15.582 33.92,-24.363 10.73,-8.707 20.77,-18.109 30.68,-27.637 9.7,-9.761 19.25,-19.671 28.12,-30.269 8.94,-10.512 17.47,-21.453 24.84,-33.57 -12.22,7.199 -23.29,15.558 -33.94,24.339 -10.72,8.719 -20.76,18.118 -30.67,27.668 -9.67,9.782 -19.22,19.68 -28.09,30.27 -8.94,10.531 -17.48,21.461 -24.86,33.562"
               style="fill:#ffffff;fill-opacity:1;fill-rule:nonzero;stroke:none"
               id="path184" /><path
               d="m 1686.47,726.77 c 7.3,13.121 16.09,24.89 25.26,36.332 9.09,11.5 18.9,22.339 28.85,33.058 10.17,10.5 20.49,20.86 31.51,30.539 10.94,9.762 22.3,19.102 34.82,27.281 -7.58,-13.011 -16.32,-24.839 -25.48,-36.25 -9.09,-11.5 -18.87,-22.308 -28.8,-32.98 -20.2,-21.031 -41.59,-40.898 -66.16,-57.98"
               style="fill:#ffffff;fill-opacity:1;fill-rule:nonzero;stroke:none"
               id="path186" /><path
               d="m 2492.02,3846.58 c 3.66,-13.92 5.62,-27.84 6.99,-41.78 1.47,-13.93 1.93,-27.87 2.19,-41.8 -0.06,-13.95 -0.34,-27.89 -1.62,-41.84 -1.17,-13.95 -2.95,-27.9 -6.45,-41.87 -3.69,13.92 -5.66,27.85 -7.01,41.78 -1.47,13.93 -1.93,27.87 -2.17,41.81 0.08,13.94 0.36,27.88 1.64,41.83 1.18,13.95 2.95,27.9 6.43,41.87"
               style="fill:#ffffff;fill-opacity:1;fill-rule:nonzero;stroke:none"
               id="path188" /><path
               d="m 2407.53,3759.41 c 14.3,3.61 28.57,5.51 42.83,6.81 14.27,1.41 28.53,1.81 42.79,2.01 14.26,-0.11 28.51,-0.44 42.79,-1.78 14.27,-1.24 28.55,-3.08 42.86,-6.64 -14.23,-3.63 -28.49,-5.54 -42.77,-6.83 -14.27,-1.41 -28.56,-1.81 -42.84,-2 -14.29,0.15 -28.58,0.48 -42.86,1.82 -14.28,1.24 -28.55,3.07 -42.8,6.61"
               style="fill:#ffffff;fill-opacity:1;fill-rule:nonzero;stroke:none"
               id="path190" /><path
               d="m 2433.13,3821.52 c 12.69,-7.48 24.18,-16.19 35.26,-25.32 11.15,-9.05 21.59,-18.82 31.89,-28.73 10.08,-10.15 20,-20.44 29.23,-31.45 9.29,-10.93 18.15,-22.31 25.82,-34.9 -12.71,7.47 -24.21,16.17 -35.28,25.3 -11.15,9.06 -21.59,18.83 -31.88,28.76 -10.06,10.16 -19.98,20.45 -29.2,31.46 -9.29,10.94 -18.16,22.31 -25.84,34.88"
               style="fill:#ffffff;fill-opacity:1;fill-rule:nonzero;stroke:none"
               id="path192" /><path
               d="m 2430.2,3692.46 c 7.59,13.63 16.72,25.87 26.25,37.75 9.46,11.96 19.65,23.24 29.99,34.37 10.57,10.92 21.3,21.69 32.75,31.75 11.37,10.14 23.18,19.85 36.2,28.35 -7.88,-13.52 -16.96,-25.82 -26.49,-37.69 -9.44,-11.94 -19.61,-23.17 -29.93,-34.27 -21,-21.85 -43.23,-42.51 -68.77,-60.26"
               style="fill:#ffffff;fill-opacity:1;fill-rule:nonzero;stroke:none"
               id="path194" /><path
               d="m 3898.77,581.871 c 10.48,-22.312 31.81,-40.32 57.54,-38.551 -11.62,0.321 -23.32,-3.558 -32.43,-10.781 -10.5,-8.32 -16.44,-21.629 -22.78,-33.07 -8.18,-14.739 -10.6,-33.27 -13.1,-49.68 -1.11,15.941 -4.13,35.441 -12.24,49.512 -7.38,12.789 -19.71,23.121 -31.59,31.597 -5.81,4.153 -12.25,8.231 -19.4,8.293 20.34,6.039 36.68,16.219 48.35,33.95 10.96,16.648 16.47,36.949 14.86,56.859 1.33,-16.469 3.76,-33.16 10.79,-48.129"
               style="fill:#ceb4d4;fill-opacity:1;fill-rule:nonzero;stroke:none"
               id="path196" /><path
               d="m 257.297,2146.05 -102.117,-233.43 229.773,-100.29 206.07,54.7 55.215,155.01"
               style="fill:none;stroke:#ffffff;stroke-width:8.94815;stroke-linecap:butt;stroke-linejoin:miter;stroke-miterlimit:10;stroke-dasharray:none;stroke-opacity:1"
               id="path198" /><path
               d="M 384.953,1812.33 503.488,1633.61 452.426,1416.6 142.41,1544.25 73.1133,1505.96"
               style="fill:none;stroke:#ffffff;stroke-width:8.94815;stroke-linecap:butt;stroke-linejoin:miter;stroke-miterlimit:10;stroke-dasharray:none;stroke-opacity:1"
               id="path200" /><path
               d="m 591.023,1867.03 27.102,-218.38 79.875,-206 94.402,-78.02 -229.988,-321.8"
               style="fill:none;stroke:#ffffff;stroke-width:8.94815;stroke-linecap:butt;stroke-linejoin:miter;stroke-miterlimit:10;stroke-dasharray:none;stroke-opacity:1"
               id="path202" /><path
               d="m 503.488,1633.61 114.637,15.04"
               style="fill:none;stroke:#ffffff;stroke-width:8.94815;stroke-linecap:butt;stroke-linejoin:miter;stroke-miterlimit:10;stroke-dasharray:none;stroke-opacity:1"
               id="path204" /><path
               d="m 260.352,2126.59 c 21.589,0 21.625,33.55 0,33.55 -21.594,0 -21.633,-33.55 0,-33.55 v 0"
               style="fill:#ffffff;fill-opacity:1;fill-rule:nonzero;stroke:none"
               id="path206" /><path
               d="m 630.297,2019.53 c 0,-0.44 0,-0.89 0,-1.34 0,-8.77 7.715,-17.18 16.777,-16.77 9.086,0.41 16.778,7.37 16.778,16.77 0,0.45 0,0.9 0,1.34 0,8.78 -7.719,17.19 -16.778,16.78 -9.094,-0.41 -16.777,-7.37 -16.777,-16.78 v 0"
               style="fill:#ffffff;fill-opacity:1;fill-rule:nonzero;stroke:none"
               id="path208" /><path
               d="m 471.613,1418.8 c 0,0.44 0,0.88 0,1.33 0,8.78 -7.715,17.19 -16.777,16.78 -9.09,-0.41 -16.777,-7.37 -16.777,-16.78 0,-0.45 0,-0.89 0,-1.33 0,-8.78 7.714,-17.19 16.777,-16.78 9.094,0.4 16.777,7.37 16.777,16.78 v 0"
               style="fill:#ffffff;fill-opacity:1;fill-rule:nonzero;stroke:none"
               id="path210" /><path
               d="m 700.473,1423.38 c 21.59,0 21.625,33.56 0,33.56 -21.594,0 -21.633,-33.56 0,-33.56 v 0"
               style="fill:#ffffff;fill-opacity:1;fill-rule:nonzero;stroke:none"
               id="path212" /><path
               d="m 569.641,1031.15 c 14.394,0 14.422,22.37 0,22.37 -14.395,0 -14.414,-22.37 0,-22.37 v 0"
               style="fill:#ffffff;fill-opacity:1;fill-rule:nonzero;stroke:none"
               id="path214" /><path
               d="m 789.914,1352.88 c 0.445,0 0.891,0 1.336,0 14.395,0 14.418,22.37 0,22.37 -0.445,0 -0.891,0 -1.336,0 -14.394,0 -14.418,-22.37 0,-22.37 v 0"
               style="fill:#ffffff;fill-opacity:1;fill-rule:nonzero;stroke:none"
               id="path216" /><path
               d="m 77.0391,1515.42 c -0.4453,0 -0.8868,0 -1.3321,0 -14.3945,0 -14.4179,-22.37 0,-22.37 0.4453,0 0.8868,0 1.3321,0 14.3945,0 14.4179,22.37 0,22.37 v 0"
               style="fill:#ffffff;fill-opacity:1;fill-rule:nonzero;stroke:none"
               id="path218" /><path
               d="m 153.641,1542.95 c 0,0.45 0,0.89 0,1.33 0,14.4 -22.371,14.42 -22.371,0 0,-0.44 0,-0.88 0,-1.33 0,-14.39 22.371,-14.42 22.371,0 v 0"
               style="fill:#ffffff;fill-opacity:1;fill-rule:nonzero;stroke:none"
               id="path220" /><path
               d="m 505.566,1625.21 c 14.395,0 14.418,22.37 0,22.37 -14.394,0 -14.421,-22.37 0,-22.37 v 0"
               style="fill:#ffffff;fill-opacity:1;fill-rule:nonzero;stroke:none"
               id="path222" /><path
               d="m 631.555,1645.74 c 0,0.89 0,1.78 0,2.67 0,14.39 -22.367,14.42 -22.367,0 0,-0.89 0,-1.78 0,-2.67 0,-14.4 22.367,-14.42 22.367,0 v 0"
               style="fill:#ffffff;fill-opacity:1;fill-rule:nonzero;stroke:none"
               id="path224" /><path
               d="m 589.668,1852.15 c 0.449,0 0.891,0 1.336,0 14.394,0 14.418,22.37 0,22.37 -0.445,0 -0.887,0 -1.336,0 -14.395,0 -14.414,-22.37 0,-22.37 v 0"
               style="fill:#ffffff;fill-opacity:1;fill-rule:nonzero;stroke:none"
               id="path226" /><path
               d="m 395.266,1812.61 c 0,0.45 0,0.89 0,1.34 0,14.39 -22.368,14.42 -22.368,0 0,-0.45 0,-0.89 0,-1.34 0,-14.39 22.368,-14.42 22.368,0 v 0"
               style="fill:#ffffff;fill-opacity:1;fill-rule:nonzero;stroke:none"
               id="path228" /><path
               d="m 154.473,1901.55 c 14.394,0 14.414,22.37 0,22.37 -14.395,0 -14.422,-22.37 0,-22.37 v 0"
               style="fill:#ffffff;fill-opacity:1;fill-rule:nonzero;stroke:none"
               id="path230" /><path
               d="m 3912.95,1808.34 c 35.31,0 35.37,54.88 0,54.88 -35.31,0 -35.37,-54.88 0,-54.88 v 0"
               style="fill:#ceb4d4;fill-opacity:1;fill-rule:nonzero;stroke:none"
               id="path232" /><path
               d="m 3912.34,1873.64 c 14.71,0 14.74,22.87 0,22.87 -14.71,0 -14.73,-22.87 0,-22.87 v 0"
               style="fill:#ceb4d4;fill-opacity:1;fill-rule:nonzero;stroke:none"
               id="path234" /><path
               d="m 3920.35,1918.61 c 0,0.22 0,0.44 0,0.67 0,10.3 -16.01,10.32 -16.01,0 0,-0.23 0,-0.45 0,-0.67 0,-10.3 16.01,-10.32 16.01,0 v 0"
               style="fill:#ceb4d4;fill-opacity:1;fill-rule:nonzero;stroke:none"
               id="path236" /><path
               d="m 3918.06,1942.75 c 0,0.22 0,0.44 0,0.67 0,7.35 -11.44,7.37 -11.44,0 0,-0.23 0,-0.45 0,-0.67 0,-7.36 11.44,-7.37 11.44,0 v 0"
               style="fill:#ceb4d4;fill-opacity:1;fill-rule:nonzero;stroke:none"
               id="path238" /><path
               d="m 3947.38,1859.64 c 14.71,0 14.74,22.86 0,22.86 -14.72,0 -14.74,-22.86 0,-22.86 v 0"
               style="fill:#ceb4d4;fill-opacity:1;fill-rule:nonzero;stroke:none"
               id="path240" /><path
               d="m 3976.75,1889.12 c 0.15,0.15 0.31,0.31 0.47,0.47 7.3,7.29 -4.02,18.61 -11.32,11.32 -0.15,-0.16 -0.32,-0.32 -0.47,-0.47 -7.3,-7.3 4.02,-18.62 11.32,-11.32 v 0"
               style="fill:#ceb4d4;fill-opacity:1;fill-rule:nonzero;stroke:none"
               id="path242" /><path
               d="m 3992.2,1907.8 c 0.16,0.16 0.31,0.32 0.47,0.48 5.21,5.21 -2.87,13.29 -8.08,8.08 -0.16,-0.16 -0.32,-0.31 -0.48,-0.47 -5.21,-5.21 2.88,-13.3 8.09,-8.09 v 0"
               style="fill:#ceb4d4;fill-opacity:1;fill-rule:nonzero;stroke:none"
               id="path244" /><path
               d="m 3962.24,1824.95 c 14.72,0 14.74,22.87 0,22.87 -14.71,0 -14.73,-22.87 0,-22.87 v 0"
               style="fill:#ceb4d4;fill-opacity:1;fill-rule:nonzero;stroke:none"
               id="path246" /><path
               d="m 3995.77,1828.38 c 0.23,0 0.45,0 0.67,0 10.3,0 10.32,16.01 0,16.01 -0.22,0 -0.44,0 -0.67,0 -10.3,0 -10.31,-16.01 0,-16.01 v 0"
               style="fill:#ceb4d4;fill-opacity:1;fill-rule:nonzero;stroke:none"
               id="path248" /><path
               d="m 4019.92,1830.67 c 0.22,0 0.44,0 0.66,0 7.36,0 7.37,11.43 0,11.43 -0.22,0 -0.44,0 -0.66,0 -7.36,0 -7.37,-11.43 0,-11.43 v 0"
               style="fill:#ceb4d4;fill-opacity:1;fill-rule:nonzero;stroke:none"
               id="path250" /><path
               d="m 3948.23,1789.91 c 14.72,0 14.74,22.87 0,22.87 -14.71,0 -14.74,-22.87 0,-22.87 v 0"
               style="fill:#ceb4d4;fill-opacity:1;fill-rule:nonzero;stroke:none"
               id="path252" /><path
               d="m 3966.28,1771.98 c 0.16,-0.16 0.32,-0.32 0.48,-0.47 7.29,-7.3 18.61,4.02 11.31,11.31 -0.15,0.16 -0.31,0.32 -0.47,0.48 -7.29,7.29 -18.61,-4.03 -11.32,-11.32 v 0"
               style="fill:#ceb4d4;fill-opacity:1;fill-rule:nonzero;stroke:none"
               id="path254" /><path
               d="m 3984.97,1756.53 c 0.16,-0.16 0.32,-0.32 0.47,-0.48 5.21,-5.21 13.3,2.88 8.09,8.09 -0.16,0.15 -0.32,0.31 -0.47,0.47 -5.21,5.21 -13.3,-2.87 -8.09,-8.08 v 0"
               style="fill:#ceb4d4;fill-opacity:1;fill-rule:nonzero;stroke:none"
               id="path256" /><path
               d="m 3913.55,1775.05 c 14.72,0 14.74,22.86 0,22.86 -14.71,0 -14.74,-22.86 0,-22.86 v 0"
               style="fill:#ceb4d4;fill-opacity:1;fill-rule:nonzero;stroke:none"
               id="path258" /><path
               d="m 3905.55,1752.95 c 0,-0.22 0,-0.44 0,-0.67 0,-10.3 16,-10.32 16,0 0,0.23 0,0.45 0,0.67 0,10.3 -16,10.32 -16,0 v 0"
               style="fill:#ceb4d4;fill-opacity:1;fill-rule:nonzero;stroke:none"
               id="path260" /><path
               d="m 3907.84,1728.81 c 0,-0.22 0,-0.44 0,-0.67 0,-7.36 11.43,-7.37 11.43,0 0,0.23 0,0.45 0,0.67 0,7.36 -11.43,7.37 -11.43,0 v 0"
               style="fill:#ceb4d4;fill-opacity:1;fill-rule:nonzero;stroke:none"
               id="path262" /><path
               d="m 3878.51,1789.06 c 14.72,0 14.74,22.87 0,22.87 -14.71,0 -14.74,-22.87 0,-22.87 v 0"
               style="fill:#ceb4d4;fill-opacity:1;fill-rule:nonzero;stroke:none"
               id="path264" /><path
               d="m 3849.14,1782.44 c -0.15,-0.15 -0.31,-0.31 -0.47,-0.47 -7.29,-7.3 4.02,-18.61 11.32,-11.32 0.16,0.16 0.32,0.32 0.47,0.47 7.3,7.3 -4.02,18.62 -11.32,11.32 v 0"
               style="fill:#ceb4d4;fill-opacity:1;fill-rule:nonzero;stroke:none"
               id="path266" /><path
               d="m 3833.69,1763.76 c -0.16,-0.16 -0.31,-0.32 -0.47,-0.48 -5.21,-5.21 2.87,-13.29 8.08,-8.08 0.16,0.16 0.32,0.31 0.48,0.47 5.21,5.21 -2.88,13.3 -8.09,8.09 v 0"
               style="fill:#ceb4d4;fill-opacity:1;fill-rule:nonzero;stroke:none"
               id="path268" /><path
               d="m 3863.65,1823.74 c 14.71,0 14.74,22.87 0,22.87 -14.72,0 -14.74,-22.87 0,-22.87 v 0"
               style="fill:#ceb4d4;fill-opacity:1;fill-rule:nonzero;stroke:none"
               id="path270" /><path
               d="m 3830.12,1843.18 c -0.22,0 -0.45,0 -0.67,0 -10.3,0 -10.32,-16.01 0,-16.01 0.22,0 0.45,0 0.67,0 10.3,0 10.31,16.01 0,16.01 v 0"
               style="fill:#ceb4d4;fill-opacity:1;fill-rule:nonzero;stroke:none"
               id="path272" /><path
               d="m 3805.98,1840.89 c -0.22,0 -0.45,0 -0.67,0 -7.36,0 -7.37,-11.43 0,-11.43 0.22,0 0.45,0 0.67,0 7.35,0 7.37,11.43 0,11.43 v 0"
               style="fill:#ceb4d4;fill-opacity:1;fill-rule:nonzero;stroke:none"
               id="path274" /><path
               d="m 3877.66,1858.78 c 14.71,0 14.74,22.87 0,22.87 -14.71,0 -14.74,-22.87 0,-22.87 v 0"
               style="fill:#ceb4d4;fill-opacity:1;fill-rule:nonzero;stroke:none"
               id="path276" /><path
               d="m 3859.61,1899.58 c -0.16,0.16 -0.31,0.31 -0.48,0.48 -7.29,7.29 -18.61,-4.03 -11.31,-11.32 0.16,-0.16 0.31,-0.32 0.47,-0.48 7.29,-7.29 18.62,4.02 11.32,11.32 v 0"
               style="fill:#ceb4d4;fill-opacity:1;fill-rule:nonzero;stroke:none"
               id="path278" /><path
               d="m 3840.92,1915.03 c -0.15,0.16 -0.31,0.32 -0.47,0.48 -5.21,5.2 -13.3,-2.88 -8.09,-8.09 0.16,-0.16 0.32,-0.31 0.48,-0.47 5.21,-5.21 13.3,2.87 8.08,8.08 v 0"
               style="fill:#ceb4d4;fill-opacity:1;fill-rule:nonzero;stroke:none"
               id="path280" /><path
               d="m 1109.3,1583.76 c 35.31,0 35.37,54.88 0,54.88 -35.31,0 -35.37,-54.88 0,-54.88 v 0"
               style="fill:#ceb4d4;fill-opacity:1;fill-rule:nonzero;stroke:none"
               id="path282" /><path
               d="m 1108.69,1649.07 c 14.72,0 14.74,22.87 0,22.87 -14.71,0 -14.73,-22.87 0,-22.87 v 0"
               style="fill:#ceb4d4;fill-opacity:1;fill-rule:nonzero;stroke:none"
               id="path284" /><path
               d="m 1116.7,1694.03 c 0,0.22 0,0.45 0,0.67 0,10.3 -16.01,10.32 -16.01,0 0,-0.22 0,-0.45 0,-0.67 0,-10.3 16.01,-10.32 16.01,0 v 0"
               style="fill:#ceb4d4;fill-opacity:1;fill-rule:nonzero;stroke:none"
               id="path286" /><path
               d="m 1114.41,1718.17 c 0,0.23 0,0.45 0,0.67 0,7.36 -11.43,7.37 -11.43,0 0,-0.22 0,-0.44 0,-0.67 0,-7.36 11.43,-7.37 11.43,0 v 0"
               style="fill:#ceb4d4;fill-opacity:1;fill-rule:nonzero;stroke:none"
               id="path288" /><path
               d="m 1143.73,1635.06 c 14.72,0 14.74,22.86 0,22.86 -14.71,0 -14.74,-22.86 0,-22.86 v 0"
               style="fill:#ceb4d4;fill-opacity:1;fill-rule:nonzero;stroke:none"
               id="path290" /><path
               d="m 1173.1,1664.54 c 0.16,0.16 0.32,0.32 0.47,0.47 7.3,7.3 -4.02,18.62 -11.32,11.32 -0.15,-0.16 -0.31,-0.31 -0.47,-0.47 -7.29,-7.29 4.02,-18.62 11.32,-11.32 v 0"
               style="fill:#ceb4d4;fill-opacity:1;fill-rule:nonzero;stroke:none"
               id="path292" /><path
               d="m 1188.55,1683.22 c 0.16,0.17 0.32,0.32 0.48,0.48 5.21,5.21 -2.88,13.29 -8.09,8.08 -0.16,-0.15 -0.32,-0.31 -0.47,-0.47 -5.21,-5.21 2.87,-13.3 8.08,-8.09 v 0"
               style="fill:#ceb4d4;fill-opacity:1;fill-rule:nonzero;stroke:none"
               id="path294" /><path
               d="m 1158.6,1600.37 c 14.71,0 14.73,22.87 0,22.87 -14.71,0 -14.74,-22.87 0,-22.87 v 0"
               style="fill:#ceb4d4;fill-opacity:1;fill-rule:nonzero;stroke:none"
               id="path296" /><path
               d="m 1192.13,1603.81 c 0.22,0 0.44,0 0.67,0 10.29,0 10.31,16 0,16 -0.23,0 -0.45,0 -0.67,0 -10.31,0 -10.32,-16 0,-16 v 0"
               style="fill:#ceb4d4;fill-opacity:1;fill-rule:nonzero;stroke:none"
               id="path298" /><path
               d="m 1216.27,1606.09 c 0.22,0 0.44,0 0.67,0 7.36,0 7.37,11.43 0,11.43 -0.23,0 -0.45,0 -0.67,0 -7.36,0 -7.37,-11.43 0,-11.43 v 0"
               style="fill:#ceb4d4;fill-opacity:1;fill-rule:nonzero;stroke:none"
               id="path300" /><path
               d="m 1144.58,1565.34 c 14.72,0 14.74,22.86 0,22.86 -14.71,0 -14.73,-22.86 0,-22.86 v 0"
               style="fill:#ceb4d4;fill-opacity:1;fill-rule:nonzero;stroke:none"
               id="path302" /><path
               d="m 1162.64,1547.4 c 0.15,-0.16 0.31,-0.31 0.47,-0.47 7.29,-7.29 18.61,4.02 11.32,11.32 -0.16,0.15 -0.32,0.31 -0.48,0.47 -7.29,7.29 -18.61,-4.02 -11.31,-11.32 v 0"
               style="fill:#ceb4d4;fill-opacity:1;fill-rule:nonzero;stroke:none"
               id="path304" /><path
               d="m 1181.32,1531.95 c 0.16,-0.16 0.32,-0.32 0.48,-0.47 5.21,-5.21 13.29,2.87 8.08,8.08 -0.16,0.16 -0.32,0.31 -0.47,0.48 -5.21,5.21 -13.3,-2.88 -8.09,-8.09 v 0"
               style="fill:#ceb4d4;fill-opacity:1;fill-rule:nonzero;stroke:none"
               id="path306" /><path
               d="m 1109.9,1550.47 c 14.72,0 14.74,22.87 0,22.87 -14.71,0 -14.74,-22.87 0,-22.87 v 0"
               style="fill:#ceb4d4;fill-opacity:1;fill-rule:nonzero;stroke:none"
               id="path308" /><path
               d="m 1101.9,1528.38 c 0,-0.23 0,-0.45 0,-0.67 0,-10.31 16,-10.32 16,0 0,0.22 0,0.44 0,0.67 0,10.29 -16,10.31 -16,0 v 0"
               style="fill:#ceb4d4;fill-opacity:1;fill-rule:nonzero;stroke:none"
               id="path310" /><path
               d="m 1104.19,1504.24 c 0,-0.23 0,-0.45 0,-0.68 0,-7.35 11.43,-7.37 11.43,0 0,0.23 0,0.45 0,0.68 0,7.35 -11.43,7.36 -11.43,0 v 0"
               style="fill:#ceb4d4;fill-opacity:1;fill-rule:nonzero;stroke:none"
               id="path312" /><path
               d="m 1074.87,1564.48 c 14.71,0 14.73,22.87 0,22.87 -14.72,0 -14.74,-22.87 0,-22.87 v 0"
               style="fill:#ceb4d4;fill-opacity:1;fill-rule:nonzero;stroke:none"
               id="path314" /><path
               d="m 1045.5,1557.87 c -0.16,-0.16 -0.32,-0.32 -0.48,-0.48 -7.29,-7.29 4.03,-18.61 11.32,-11.31 0.16,0.15 0.32,0.31 0.47,0.47 7.3,7.29 -4.01,18.61 -11.31,11.32 v 0"
               style="fill:#ceb4d4;fill-opacity:1;fill-rule:nonzero;stroke:none"
               id="path316" /><path
               d="m 1030.05,1539.18 c -0.16,-0.16 -0.32,-0.32 -0.48,-0.47 -5.21,-5.21 2.87,-13.3 8.08,-8.09 0.17,0.16 0.32,0.32 0.48,0.48 5.21,5.21 -2.87,13.29 -8.08,8.08 v 0"
               style="fill:#ceb4d4;fill-opacity:1;fill-rule:nonzero;stroke:none"
               id="path318" /><path
               d="m 1060,1599.17 c 14.72,0 14.74,22.86 0,22.86 -14.71,0 -14.74,-22.86 0,-22.86 v 0"
               style="fill:#ceb4d4;fill-opacity:1;fill-rule:nonzero;stroke:none"
               id="path320" /><path
               d="m 1026.47,1618.6 c -0.22,0 -0.45,0 -0.67,0 -10.3,0 -10.32,-16.01 0,-16.01 0.22,0 0.45,0 0.67,0 10.3,0 10.32,16.01 0,16.01 v 0"
               style="fill:#ceb4d4;fill-opacity:1;fill-rule:nonzero;stroke:none"
               id="path322" /><path
               d="m 1002.33,1616.32 c -0.22,0 -0.45,0 -0.67,0 -7.355,0 -7.371,-11.44 0,-11.44 0.22,0 0.45,0 0.67,0 7.36,0 7.37,11.44 0,11.44 v 0"
               style="fill:#ceb4d4;fill-opacity:1;fill-rule:nonzero;stroke:none"
               id="path324" /><path
               d="m 1074.01,1634.2 c 14.71,0 14.74,22.87 0,22.87 -14.71,0 -14.73,-22.87 0,-22.87 v 0"
               style="fill:#ceb4d4;fill-opacity:1;fill-rule:nonzero;stroke:none"
               id="path326" /><path
               d="m 1055.96,1675 c -0.16,0.16 -0.31,0.32 -0.47,0.48 -7.29,7.29 -18.62,-4.02 -11.32,-11.32 0.16,-0.16 0.32,-0.32 0.47,-0.48 7.3,-7.29 18.62,4.03 11.32,11.32 v 0"
               style="fill:#ceb4d4;fill-opacity:1;fill-rule:nonzero;stroke:none"
               id="path328" /><path
               d="m 1037.27,1690.46 c -0.15,0.15 -0.31,0.31 -0.47,0.47 -5.21,5.21 -13.3,-2.87 -8.08,-8.09 0.16,-0.15 0.31,-0.31 0.47,-0.47 5.21,-5.21 13.3,2.88 8.08,8.09 v 0"
               style="fill:#ceb4d4;fill-opacity:1;fill-rule:nonzero;stroke:none"
               id="path330" /><path
               d="m 1074.95,3470.81 c 1.11,-20.25 5.46,-40.61 15.33,-58.32 9.86,-17.71 25.64,-32.61 44.92,-38.9 -20.29,-6.96 -35.63,-24.38 -44.86,-43.75 -9.24,-19.36 -13.18,-40.75 -17.03,-61.85 -1.58,22.85 -5.28,46.15 -16.6,66.06 -11.33,19.9 -31.57,35.95 -54.45,36.97 47.33,-2.11 68.24,63.03 72.69,99.79"
               style="fill:#ceb4d4;fill-opacity:1;fill-rule:nonzero;stroke:none"
               id="path332" /><path
               d="m 1073.32,3549.53 v -49.01"
               style="fill:none;stroke:#ceb4d4;stroke-width:8.61486;stroke-linecap:round;stroke-linejoin:round;stroke-miterlimit:10;stroke-dasharray:none;stroke-opacity:1"
               id="path334" /><path
               d="m 1199.71,3498.02 -34.65,-34.65"
               style="fill:none;stroke:#ceb4d4;stroke-width:8.61486;stroke-linecap:round;stroke-linejoin:round;stroke-miterlimit:10;stroke-dasharray:none;stroke-opacity:1"
               id="path336" /><path
               d="m 1252.65,3372.23 h -49"
               style="fill:none;stroke:#ceb4d4;stroke-width:8.61486;stroke-linecap:round;stroke-linejoin:round;stroke-miterlimit:10;stroke-dasharray:none;stroke-opacity:1"
               id="path338" /><path
               d="m 1201.15,3245.85 -34.65,34.65"
               style="fill:none;stroke:#ceb4d4;stroke-width:8.61486;stroke-linecap:round;stroke-linejoin:round;stroke-miterlimit:10;stroke-dasharray:none;stroke-opacity:1"
               id="path340" /><path
               d="m 1075.36,3192.91 v 49"
               style="fill:none;stroke:#ceb4d4;stroke-width:8.61486;stroke-linecap:round;stroke-linejoin:round;stroke-miterlimit:10;stroke-dasharray:none;stroke-opacity:1"
               id="path342" /><path
               d="m 948.977,3244.41 34.656,34.65"
               style="fill:none;stroke:#ceb4d4;stroke-width:8.61486;stroke-linecap:round;stroke-linejoin:round;stroke-miterlimit:10;stroke-dasharray:none;stroke-opacity:1"
               id="path344" /><path
               d="m 896.035,3370.2 h 49.004"
               style="fill:none;stroke:#ceb4d4;stroke-width:8.61486;stroke-linecap:round;stroke-linejoin:round;stroke-miterlimit:10;stroke-dasharray:none;stroke-opacity:1"
               id="path346" /><path
               d="m 947.539,3496.58 34.652,-34.65"
               style="fill:none;stroke:#ceb4d4;stroke-width:8.61486;stroke-linecap:round;stroke-linejoin:round;stroke-miterlimit:10;stroke-dasharray:none;stroke-opacity:1"
               id="path348" /><path
               d="m 2579.41,693.211 c 1.11,-20.242 5.46,-40.609 15.32,-58.332 9.87,-17.699 25.65,-32.59 44.93,-38.879 -20.29,-6.969 -35.63,-24.398 -44.87,-43.75 -9.23,-19.371 -13.18,-40.75 -17.02,-61.859 -1.58,22.839 -5.28,46.148 -16.6,66.058 -11.33,19.903 -31.57,35.949 -54.45,36.973 47.33,-2.113 68.24,63.027 72.69,99.789"
               style="fill:#ceb4d4;fill-opacity:1;fill-rule:nonzero;stroke:none"
               id="path350" /><path
               d="M 2577.78,771.93 V 722.922"
               style="fill:none;stroke:#ceb4d4;stroke-width:8.61486;stroke-linecap:round;stroke-linejoin:round;stroke-miterlimit:10;stroke-dasharray:none;stroke-opacity:1"
               id="path352" /><path
               d="M 2704.17,720.422 2669.52,685.77"
               style="fill:none;stroke:#ceb4d4;stroke-width:8.61486;stroke-linecap:round;stroke-linejoin:round;stroke-miterlimit:10;stroke-dasharray:none;stroke-opacity:1"
               id="path354" /><path
               d="m 2757.11,594.641 h -49"
               style="fill:none;stroke:#ceb4d4;stroke-width:8.61486;stroke-linecap:round;stroke-linejoin:round;stroke-miterlimit:10;stroke-dasharray:none;stroke-opacity:1"
               id="path356" /><path
               d="m 2705.61,468.25 -34.65,34.648"
               style="fill:none;stroke:#ceb4d4;stroke-width:8.61486;stroke-linecap:round;stroke-linejoin:round;stroke-miterlimit:10;stroke-dasharray:none;stroke-opacity:1"
               id="path358" /><path
               d="m 2579.82,415.301 v 49.008"
               style="fill:none;stroke:#ceb4d4;stroke-width:8.61486;stroke-linecap:round;stroke-linejoin:round;stroke-miterlimit:10;stroke-dasharray:none;stroke-opacity:1"
               id="path360" /><path
               d="m 2453.44,466.809 34.65,34.66"
               style="fill:none;stroke:#ceb4d4;stroke-width:8.61486;stroke-linecap:round;stroke-linejoin:round;stroke-miterlimit:10;stroke-dasharray:none;stroke-opacity:1"
               id="path362" /><path
               d="m 2400.49,592.602 h 49.01"
               style="fill:none;stroke:#ceb4d4;stroke-width:8.61486;stroke-linecap:round;stroke-linejoin:round;stroke-miterlimit:10;stroke-dasharray:none;stroke-opacity:1"
               id="path364" /><path
               d="m 2452,718.988 34.65,-34.66"
               style="fill:none;stroke:#ceb4d4;stroke-width:8.61486;stroke-linecap:round;stroke-linejoin:round;stroke-miterlimit:10;stroke-dasharray:none;stroke-opacity:1"
               id="path366" /><path
               d="m 4167.07,1049.84 c 1.12,-20.25 5.46,-40.62 15.34,-58.32 9.86,-17.719 25.63,-32.61 44.91,-38.899 -20.29,-6.973 -35.63,-24.402 -44.87,-43.75 -9.23,-19.371 -13.17,-40.75 -17.02,-61.859 -1.58,22.847 -5.28,46.16 -16.6,66.058 -11.33,19.899 -31.56,35.961 -54.44,36.969 47.32,-2.109 68.23,63.031 72.68,99.801"
               style="fill:#ceb4d4;fill-opacity:1;fill-rule:nonzero;stroke:none"
               id="path368" /><path
               d="m 4165.45,1128.55 v -49"
               style="fill:none;stroke:#ceb4d4;stroke-width:8.61486;stroke-linecap:round;stroke-linejoin:round;stroke-miterlimit:10;stroke-dasharray:none;stroke-opacity:1"
               id="path370" /><path
               d="m 4167.48,771.93 v 49"
               style="fill:none;stroke:#ceb4d4;stroke-width:8.61486;stroke-linecap:round;stroke-linejoin:round;stroke-miterlimit:10;stroke-dasharray:none;stroke-opacity:1"
               id="path372" /><path
               d="m 4041.1,823.43 34.66,34.66"
               style="fill:none;stroke:#ceb4d4;stroke-width:8.61486;stroke-linecap:round;stroke-linejoin:round;stroke-miterlimit:10;stroke-dasharray:none;stroke-opacity:1"
               id="path374" /><path
               d="m 3988.16,949.219 h 49"
               style="fill:none;stroke:#ceb4d4;stroke-width:8.61486;stroke-linecap:round;stroke-linejoin:round;stroke-miterlimit:10;stroke-dasharray:none;stroke-opacity:1"
               id="path376" /><path
               d="m 4039.66,1075.6 34.65,-34.65"
               style="fill:none;stroke:#ceb4d4;stroke-width:8.61486;stroke-linecap:round;stroke-linejoin:round;stroke-miterlimit:10;stroke-dasharray:none;stroke-opacity:1"
               id="path378" /><path
               d="m 1205.15,2895.38 c 0.06,-20.4 -11.24,-31.77 -30.43,-32.37 -19.11,-0.6 -32.56,10.64 -33.46,30.07 -0.98,21.14 12.04,34.34 32.86,34.39 19.2,0.05 30.26,-12.1 31.03,-32.09"
               style="fill:#ab6d2b;fill-opacity:1;fill-rule:nonzero;stroke:none"
               id="path380" /><path
               d="m 4071.04,2341.32 c -21.76,1.61 -32.27,12.01 -31.74,29.61 0.48,16.28 12.41,25.92 28.05,25.87 15.27,-0.05 27.08,-8.37 27.82,-25.54 0.82,-18.69 -10.71,-26.93 -24.13,-29.94"
               style="fill:#e4a7d8;fill-opacity:1;fill-rule:nonzero;stroke:none"
               id="path382" /><path
               d="m 2521.81,2420.9 c 17.73,-2.32 27.61,-12.07 26.55,-28.41 -1.1,-16.92 -13.31,-24.66 -29.62,-23.27 -14.83,1.27 -24.49,10.59 -23.87,25.65 0.69,16.54 11.62,24.83 26.94,26.03"
               style="fill:#83ab46;fill-opacity:1;fill-rule:nonzero;stroke:none"
               id="path384" /><path
               d="m 3577.91,1427.64 c -1.29,-15.32 -9.48,-24.01 -25,-24.42 -17.1,-0.45 -27.65,8.42 -27.4,25.5 0.22,14.77 9.29,24.47 24.77,25.1 17.54,0.73 25.57,-9.76 27.63,-26.18"
               style="fill:#88b344;fill-opacity:1;fill-rule:nonzero;stroke:none"
               id="path386" /><path
               d="m 586.844,3356.88 c -2.774,-16.09 -10.922,-26.71 -27.871,-26.19 -16.606,0.51 -26.727,10.47 -25.766,26.98 0.84,14.32 10.332,23.35 25.504,24.1 17.461,0.87 25.07,-9.63 28.133,-24.89"
               style="fill:#86b346;fill-opacity:1;fill-rule:nonzero;stroke:none"
               id="path388" /><path
               d="m 335.281,1291.37 c -3.676,-14.13 -11.949,-24.13 -26.898,-23.41 -16.875,0.8 -25.332,11.66 -23.34,28.54 1.805,15.28 11.738,23.08 26.91,21.47 15.16,-1.62 21.664,-12.32 23.328,-26.6"
               style="fill:#e1a5d6;fill-opacity:1;fill-rule:nonzero;stroke:none"
               id="path390" /><path
               d="m 1604.77,3120.77 c -3.8,-17.77 -13.01,-28.1 -29.4,-26.34 -14.37,1.54 -22.79,11.78 -22.05,26.84 0.84,17.22 11.08,25.23 27.9,23.57 15.23,-1.5 21.3,-12.16 23.55,-24.07"
               style="fill:#e1aada;fill-opacity:1;fill-rule:nonzero;stroke:none"
               id="path392" /><path
               d="m 2256.21,2091.66 c -2.09,-12.1 -8.43,-20.14 -21,-19.15 -13.83,1.08 -21.44,10.41 -19.76,23.79 1.46,11.64 10.33,18.77 22.49,17 11.61,-1.69 18.29,-9.45 18.27,-21.64"
               style="fill:#976831;fill-opacity:1;fill-rule:nonzero;stroke:none"
               id="path394" /><path
               d="m 725.707,3582.3 c 11.082,-2.85 19.441,-9.19 18.719,-21.63 -0.692,-12.04 -8.656,-20.15 -20.711,-19.21 -11.383,0.9 -20.266,8.65 -19.41,21.04 0.816,11.73 8.832,18.68 21.402,19.8"
               style="fill:#d0a5d3;fill-opacity:1;fill-rule:nonzero;stroke:none"
               id="path396" /><path
               d="m 786.629,2247.48 c -1.609,-12.28 -8.25,-19.96 -21,-19.54 -10.738,0.35 -18.234,7.12 -19.027,17.77 -0.938,12.45 6.453,20.94 18.742,21.47 12.203,0.53 19.679,-7.02 21.285,-19.7"
               style="fill:#9a6f34;fill-opacity:1;fill-rule:nonzero;stroke:none"
               id="path398" /><path
               d="m 3600.03,2195.39 c -13.36,1.64 -20.35,9.5 -19.45,21.13 0.9,11.51 9,19.23 21.33,18.15 11.79,-1.03 19.83,-8.16 18.47,-20.73 -1.26,-11.7 -8.8,-18.46 -20.35,-18.55"
               style="fill:#d6a9d7;fill-opacity:1;fill-rule:nonzero;stroke:none"
               id="path400" /><path
               d="m 2699.69,3180.78 c 9.89,-2.36 16.61,-8.33 16.04,-19.11 -0.58,-10.7 -7.15,-17.21 -18.2,-16.57 -10.86,0.63 -17.57,7.71 -16.86,18.24 0.7,10.25 8.2,16.08 19.02,17.44"
               style="fill:#ccb0d3;fill-opacity:1;fill-rule:nonzero;stroke:none"
               id="path402" /><path
               d="m 2930.01,2838 c 11.38,-1.31 16.66,-7.87 15.96,-19.3 -0.62,-9.98 -6.83,-15.4 -16.03,-15.99 -11.76,-0.74 -18.01,7.7 -18.56,17.68 -0.61,11.1 7.41,16.79 18.63,17.61"
               style="fill:#98713f;fill-opacity:1;fill-rule:nonzero;stroke:none"
               id="path404" /><path
               d="m 1229.48,1936.94 c 11.37,-1.31 16.66,-7.86 15.95,-19.3 -0.61,-9.98 -6.82,-15.4 -16.02,-15.98 -11.76,-0.75 -18.01,7.69 -18.56,17.67 -0.62,11.1 7.41,16.79 18.63,17.61"
               style="fill:#98713f;fill-opacity:1;fill-rule:nonzero;stroke:none"
               id="path406" /><path
               d="m 1138.87,1390.13 c -1.28,-10.34 -7.86,-16.8 -18.28,-16.36 -10.15,0.42 -17.93,6.83 -17.34,17.83 0.56,10.43 7.9,17.67 18.21,17.25 10.01,-0.41 16.8,-7.11 17.41,-18.72"
               style="fill:#cea8d4;fill-opacity:1;fill-rule:nonzero;stroke:none"
               id="path408" /><path
               d="m 1647.59,3480.01 c -1.23,-10.26 -5.91,-18.16 -17.45,-17 -8.23,0.83 -16.33,5.05 -16.93,14.8 -0.65,10.66 4.97,17.82 16.02,18.93 11.75,1.18 16.52,-6.24 18.36,-16.73"
               style="fill:#997236;fill-opacity:1;fill-rule:nonzero;stroke:none"
               id="path410" /><path
               d="m 2719.74,2912.29 c 9.26,0.41 15.54,-3.93 16.76,-13.39 1.21,-9.34 -3.78,-16.39 -12.61,-18.07 -11.04,-2.1 -18.47,4.63 -19.03,15.19 -0.45,8.53 4.49,15.63 14.88,16.27"
               style="fill:#bea7ce;fill-opacity:1;fill-rule:nonzero;stroke:none"
               id="path412" /><path
               d="m 3420.28,2275.55 c -1.45,-11.58 -7.41,-16.35 -16.8,-15.45 -9.26,0.89 -15,6.74 -14.02,16.35 0.96,9.37 7.18,14.35 16.72,13.69 9.87,-0.69 13.78,-7.07 14.1,-14.59"
               style="fill:#ceb6dc;fill-opacity:1;fill-rule:nonzero;stroke:none"
               id="path414" /><path
               d="m 600.473,2593.4 c 11.078,-2.65 15.925,-8.74 15.351,-18.09 -0.636,-10.33 -8.773,-14.38 -17.187,-13.75 -9.043,0.69 -14.426,7.72 -13.516,17.25 0.934,9.86 8.363,13.07 15.352,14.59"
               style="fill:#d2aed9;fill-opacity:1;fill-rule:nonzero;stroke:none"
               id="path416" /><path
               d="m 1466.72,3652.01 c -2.2,-9.3 -7.62,-14.84 -17.42,-13.46 -7.82,1.09 -12.81,6.17 -12.11,14.5 0.66,7.77 4.97,13.77 13.2,13.96 9.56,0.22 15.01,-5.49 16.33,-15"
               style="fill:#8d7151;fill-opacity:1;fill-rule:nonzero;stroke:none"
               id="path418" /><path
               d="m 3265.09,782.539 c -3.81,-17.769 -13.01,-28.098 -29.4,-26.348 -14.37,1.547 -22.79,11.789 -22.05,26.84 0.85,17.231 11.08,25.231 27.9,23.578 15.23,-1.5 21.31,-12.168 23.55,-24.07"
               style="fill:#e1aada;fill-opacity:1;fill-rule:nonzero;stroke:none"
               id="path420" /><path
               d="m 3307.91,1141.77 c -1.24,-10.25 -5.91,-18.16 -17.45,-16.99 -8.23,0.82 -16.33,5.05 -16.93,14.8 -0.65,10.66 4.97,17.82 16.01,18.93 11.77,1.17 16.52,-6.24 18.37,-16.74"
               style="fill:#997236;fill-opacity:1;fill-rule:nonzero;stroke:none"
               id="path422" /><path
               d="m 3127.04,1313.78 c -2.2,-9.31 -7.62,-14.84 -17.42,-13.47 -7.82,1.1 -12.81,6.18 -12.11,14.51 0.66,7.76 4.96,13.77 13.21,13.96 9.55,0.22 15,-5.5 16.32,-15"
               style="fill:#8d7151;fill-opacity:1;fill-rule:nonzero;stroke:none"
               id="path424" /><path
               d="m 2553.78,1439.36 c -9.89,-0.08 -15.72,5.56 -16.57,14.6 -0.91,9.57 4.96,15.46 14.61,15.8 9.23,0.33 16.67,-4.33 16.75,-13.84 0.07,-8.51 -4.68,-15.65 -14.79,-16.56"
               style="fill:#d4add9;fill-opacity:1;fill-rule:nonzero;stroke:none"
               id="path426" /><path
               d="m 1948.23,2258.95 c -1.11,-9.57 -5.52,-14.95 -13.21,-16 -8.14,-1.11 -14.04,3.92 -15.03,11.55 -1.24,9.46 3.71,15.99 13.93,16.3 8.82,0.28 10.87,-7.29 14.31,-11.85"
               style="fill:#bdadd0;fill-opacity:1;fill-rule:nonzero;stroke:none"
               id="path428" /><path
               d="m 1320.66,1014.99 c 17.74,-2.31 27.62,-12.05 26.56,-28.4 -1.1,-16.918 -13.32,-24.66 -29.62,-23.27 -14.83,1.27 -24.5,10.59 -23.87,25.649 0.69,16.541 11.62,24.831 26.93,26.021"
               style="fill:#83ab46;fill-opacity:1;fill-rule:nonzero;stroke:none"
               id="path430" /><path
               d="m 1055.07,685.762 c -2.09,-12.114 -8.43,-20.133 -21,-19.16 -13.84,1.089 -21.44,10.41 -19.76,23.789 1.46,11.648 10.33,18.781 22.49,17 11.61,-1.692 18.29,-9.442 18.27,-21.629"
               style="fill:#976831;fill-opacity:1;fill-rule:nonzero;stroke:none"
               id="path432" /><path
               d="m 747.082,853.051 c -1.105,-9.571 -5.516,-14.949 -13.203,-16 -8.145,-1.11 -14.035,3.918 -15.031,11.558 -1.243,9.461 3.711,15.981 13.933,16.289 8.821,0.282 10.871,-7.289 14.301,-11.847"
               style="fill:#bdadd0;fill-opacity:1;fill-rule:nonzero;stroke:none"
               id="path434" /><path
               d="m 3539.72,3274.13 c 7.84,-1.69 13.25,-6.56 12.99,-14.39 -0.32,-9.86 -7.05,-15.02 -16.69,-13.5 -7.98,1.26 -12.11,7.47 -10.96,15.56 1.13,7.95 6.31,12.31 14.66,12.33"
               style="fill:#d8afdb;fill-opacity:1;fill-rule:nonzero;stroke:none"
               id="path436" /><path
               d="m 907.832,2601.26 c -1.496,-8.56 -6.394,-13.14 -14.637,-12.35 -7.859,0.75 -13.242,5.34 -12.5,13.9 0.723,8.27 6.063,12.56 14.317,12.03 8.371,-0.55 12.359,-5.76 12.82,-13.58"
               style="fill:#887047;fill-opacity:1;fill-rule:nonzero;stroke:none"
               id="path438" /><path
               d="m 291.281,3169.29 c -1.254,-8.83 -6.242,-15.07 -15.59,-14.63 -7.437,0.34 -12.226,5.79 -12.832,13.64 -0.632,8.2 3.918,13.63 11.442,14.56 9.101,1.12 15.203,-3.75 16.98,-13.57"
               style="fill:#b9a2c7;fill-opacity:1;fill-rule:nonzero;stroke:none"
               id="path440" /><path
               d="m 3034.52,3546.24 c 8.01,-0.26 13.24,-4.1 14.26,-12.19 0.84,-6.68 -2.76,-11.38 -9.05,-12.78 -7.76,-1.73 -14.09,1.37 -15.71,9.48 -1.59,7.98 2.95,13.05 10.5,15.49"
               style="fill:#a494b8;fill-opacity:1;fill-rule:nonzero;stroke:none"
               id="path442" /><path
               d="m 2110.1,1508.56 c -1.9,-9.03 -5.33,-15.67 -13.76,-15.21 -7.85,0.42 -12.68,6.27 -12.43,14.23 0.22,6.46 4.71,10.66 11.27,11.33 8.51,0.86 12.24,-4.76 14.92,-10.35"
               style="fill:#84724d;fill-opacity:1;fill-rule:nonzero;stroke:none"
               id="path444" /><path
               d="m 2916.46,3223.28 c -0.53,-7.42 -4.3,-12.84 -13.17,-12.52 -6.93,0.26 -10.97,5.11 -11.33,11.46 -0.48,8.42 4.63,13.76 13,13.39 6.25,-0.28 10.7,-4.57 11.5,-12.33"
               style="fill:#7e6857;fill-opacity:1;fill-rule:nonzero;stroke:none"
               id="path446" /><path
               d="m 1876.76,1122.83 c 6.78,-1.46 11.84,-5.19 11.87,-11.54 0.04,-8.24 -5.68,-13.5 -13.8,-12.2 -5.79,0.94 -10.91,6.01 -9.8,12.82 0.98,6.09 5.61,9.99 11.73,10.92"
               style="fill:#9d8caf;fill-opacity:1;fill-rule:nonzero;stroke:none"
               id="path448" /><path
               d="m 474.988,3618.69 c -0.054,-7 -2.445,-12.26 -9.222,-13.56 -6.895,-1.31 -11.371,2.56 -12.731,9.1 -1.484,7.12 3.106,11.62 9.164,12.73 6.028,1.09 11.66,-1.28 12.789,-8.27"
               style="fill:#928057;fill-opacity:1;fill-rule:nonzero;stroke:none"
               id="path450" /><path
               d="m 2360.04,3606.09 c -0.04,-6.84 -3.87,-11.66 -9.97,-12.68 -7.94,-1.33 -13.37,3.18 -14.28,11.33 -0.76,6.81 3.68,11.96 9.55,12.86 7.67,1.17 13.38,-3.1 14.7,-11.51"
               style="fill:#bbb0cd;fill-opacity:1;fill-rule:nonzero;stroke:none"
               id="path452" /><path
               d="m 1578.45,454.941 c -1.24,-10.25 -5.91,-18.152 -17.46,-16.992 -8.23,0.821 -16.32,5.051 -16.92,14.813 -0.65,10.648 4.96,17.816 16.01,18.918 11.76,1.172 16.52,-6.239 18.37,-16.739"
               style="fill:#997236;fill-opacity:1;fill-rule:nonzero;stroke:none"
               id="path454" /><path
               d="m 4123.54,1363.4 c -2.2,-9.31 -7.62,-14.85 -17.42,-13.47 -7.82,1.1 -12.81,6.18 -12.11,14.51 0.65,7.76 4.97,13.77 13.2,13.96 9.56,0.21 15.01,-5.5 16.33,-15"
               style="fill:#8d7151;fill-opacity:1;fill-rule:nonzero;stroke:none"
               id="path456" /><path
               d="m 2290.9,581.039 c -0.04,-6.848 -3.88,-11.668 -9.97,-12.699 -7.94,-1.328 -13.37,3.191 -14.28,11.34 -0.76,6.808 3.68,11.961 9.54,12.859 7.68,1.172 13.38,-3.098 14.71,-11.5"
               style="fill:#bbb0cd;fill-opacity:1;fill-rule:nonzero;stroke:none"
               id="path458" /><path
               d="m 1088.75,3575.57 c -3.7,-0.28 -7.41,-0.56 -11.11,-0.84 -15.71,5.07 -27.84,15.09 -44.66,32.66 26.25,-7.75 40.92,-19.95 55.77,-31.82"
               style="fill:#8b7191;fill-opacity:1;fill-rule:nonzero;stroke:none"
               id="path460" /><path
               d="m 3470.79,944.859 c 13.21,-9.257 26.43,-18.519 42.48,-29.777 -1.9,11.398 -3.3,19.777 -4.94,29.59 9.43,-3.684 8.65,-14.902 17.35,-19.25 8.6,14.156 4.94,31.578 13.24,49.008 3.16,-17.981 5.84,-33.289 8.77,-49.989 10.06,3.36 9.63,14.481 16.86,19.481 5.64,-7.973 -2.76,-15.652 0.11,-24.832 15,4.32 24.73,17.59 43.87,25.851 -11.29,-16.621 -19.7,-29 -30.09,-44.3 11.3,1.718 18.81,2.879 31.44,4.808 -10.19,-7.59 -16.46,-12.258 -25.83,-19.25 18.06,-3.219 33.1,-5.91 51.01,-9.097 -16.1,-9.922 -33.71,-4.872 -49,-14.09 7.69,-5.34 14.5,-10.082 26.02,-18.09 -13.64,2.367 -21.99,3.808 -34.28,5.93 11.29,-16.243 21,-30.204 30.7,-44.18 -0.55,-0.57 -1.1,-1.16 -1.65,-1.742 -13.75,9.57 -27.5,19.14 -41.4,28.808 -5.02,-9.41 4.28,-17.437 -0.2,-25.758 -8.08,3.11 -6.85,14.442 -17.54,17.508 -2.73,-16.09 -5.42,-31.918 -8.46,-49.816 -9.73,15.859 -3.83,34.41 -12.64,48.867 -9.98,-3.551 -9.79,-14.91 -19.01,-19.918 1.93,9.789 3.66,18.527 6.16,31.129 -14.63,-9.82 -26.58,-17.852 -41.89,-28.121 4.65,18.281 18.37,26.832 23.91,40.383 -9.71,4.379 -18.05,-2.832 -30.52,-2.633 9.58,6.859 16.58,11.871 26.29,18.812 -18.15,3.739 -33.58,6.918 -49.02,10.11 0.1,1.058 0.2,2.129 0.3,3.187 15.12,2.512 30.23,5.024 46.46,7.711 -3.01,9.531 -14.15,9.711 -18.39,17.531 8.08,4.911 16.09,-4.921 25.01,0.852 -9.1,12.906 -18.32,25.977 -27.54,39.059 0.81,0.738 1.61,1.48 2.42,2.218"
               style="fill:#38999b;fill-opacity:1;fill-rule:nonzero;stroke:none"
               id="path462" /><path
               d="m 1485.27,2049 c 13.21,-9.26 26.43,-18.52 42.49,-29.78 -1.91,11.39 -3.31,19.79 -4.95,29.59 9.43,-3.69 8.65,-14.91 17.35,-19.25 8.6,14.15 4.94,31.57 13.24,49.01 3.16,-17.99 5.85,-33.29 8.78,-49.99 10.05,3.36 9.63,14.47 16.85,19.47 5.65,-7.97 -2.76,-15.64 0.11,-24.83 15,4.33 24.74,17.6 43.87,25.86 -11.29,-16.62 -19.7,-29.01 -30.09,-44.31 11.3,1.74 18.82,2.88 31.44,4.82 -10.19,-7.6 -16.46,-12.27 -25.83,-19.25 18.07,-3.22 33.1,-5.9 51,-9.1 -16.09,-9.93 -33.7,-4.88 -48.99,-14.09 7.7,-5.35 14.51,-10.08 26.03,-18.09 -13.65,2.36 -22,3.81 -34.29,5.93 11.29,-16.24 20.99,-30.21 30.7,-44.18 -0.55,-0.58 -1.1,-1.16 -1.64,-1.74 -13.76,9.57 -27.51,19.13 -41.41,28.81 -5.02,-9.42 4.28,-17.44 -0.2,-25.76 -8.08,3.11 -6.85,14.44 -17.53,17.5 -2.74,-16.09 -5.43,-31.92 -8.47,-49.81 -9.72,15.85 -3.82,34.41 -12.63,48.87 -9.99,-3.55 -9.8,-14.91 -19.02,-19.92 1.94,9.78 3.67,18.53 6.16,31.13 -14.62,-9.82 -26.59,-17.85 -41.89,-28.13 4.65,18.29 18.37,26.85 23.92,40.38 -9.72,4.39 -18.05,-2.83 -30.53,-2.62 9.58,6.86 16.59,11.86 26.29,18.81 -18.15,3.74 -33.58,6.93 -49.01,10.11 0.09,1.06 0.19,2.12 0.29,3.19 15.12,2.51 30.24,5.01 46.46,7.71 -3,9.52 -14.15,9.71 -18.39,17.52 8.09,4.91 16.09,-4.91 25.01,0.85 -9.1,12.91 -18.32,25.99 -27.54,39.06 0.81,0.75 1.62,1.49 2.42,2.23"
               style="fill:#38999b;fill-opacity:1;fill-rule:nonzero;stroke:none"
               id="path464" /><path
               d="m 78.6406,2591.79 c 34.2034,-36.92 65.9964,-75.96 98.8084,-114.1 16.41,-19.08 33.059,-37.97 50.379,-56.22 12.805,-13.49 27.719,-25.4 31.238,-44.43 -47.699,20.96 -93.418,49.63 -139.418,74.28 -20.9292,11.2 -42.0582,22.14 -61.6128,35.13 -17.8946,11.89 -39.2032,26.22 -59.76176,33.05 18.83596,-6.26 38.58206,-9.77 58.41406,-10.4 -47.20703,34.15 -88.8945,74.05 -135.1758,109.36 -47.4647,36.22 -95.1837,72.11 -142.5587,108.45 -94.551,72.53 -187.926,146.93 -274.652,228.79 -13.871,13.09 -27.571,26.36 -41.067,39.84 39.465,-39.41 94.5,-72.31 140.633,-105.05 49.668,-35.24 99.965,-69.57 150.067,-104.19 98.628,-68.14 192.1637,-143.71 292.5777,-209.06 5.1211,-3.33 10.2539,-6.64 15.3906,-9.95 7.2266,-4.65 14.4883,-9.26 21.7774,-13.81 -1.6797,12.77 -3.3594,25.54 -5.0391,38.31"
               style="fill:#6acdc3;fill-opacity:1;fill-rule:nonzero;stroke:none"
               id="path466" /><path
               d="M -393.332,3746.19 -95.1836,3555.14 564.809,3283.04"
               style="fill:none;stroke:#ffffff;stroke-width:11.82;stroke-linecap:butt;stroke-linejoin:miter;stroke-miterlimit:10;stroke-dasharray:none;stroke-opacity:1"
               id="path468" /><path
               d="M 17.7148,4018.29 58.2344,3789.61 -95.1836,3555.14 -127.023,3268.57 -355.699,3193.3"
               style="fill:none;stroke:#ffffff;stroke-width:11.82;stroke-linecap:butt;stroke-linejoin:miter;stroke-miterlimit:10;stroke-dasharray:none;stroke-opacity:1"
               id="path470" /><path
               d="m 63.3047,3773.39 c 19.0117,0 19.043,29.55 0,29.55 -19.0156,0 -19.0469,-29.55 0,-29.55 v 0"
               style="fill:#ffffff;fill-opacity:1;fill-rule:nonzero;stroke:none"
               id="path472" /><path
               d="m 558.293,3274.05 c 19.016,0 19.051,29.56 0,29.56 -19.012,0 -19.043,-29.56 0,-29.56 v 0"
               style="fill:#ffffff;fill-opacity:1;fill-rule:nonzero;stroke:none"
               id="path474" /><path
               d="m -39.0195,1049.84 c 1.1093,-20.25 5.457,-40.62 15.3281,-58.32 9.8672,-17.719 25.64453,-32.61 44.9141,-38.899 -20.2852,-6.973 -35.6172,-24.402 -44.8555,-43.75 -9.2383,-19.371 -13.1797,-40.75 -17.0274,-61.859 -1.582,22.847 -5.2851,46.16 -16.6054,66.058 -11.3242,19.899 -31.5625,35.961 -54.4454,36.969 47.3243,-2.109 68.2383,63.031 72.6915,99.801"
               style="fill:#ceb4d4;fill-opacity:1;fill-rule:nonzero;stroke:none"
               id="path476" /><path
               d="M 85.7344,1077.04 51.0859,1042.39"
               style="fill:none;stroke:#ceb4d4;stroke-width:8.61486;stroke-linecap:round;stroke-linejoin:round;stroke-miterlimit:10;stroke-dasharray:none;stroke-opacity:1"
               id="path478" /><path
               d="M 138.684,951.262 H 89.6797"
               style="fill:none;stroke:#ceb4d4;stroke-width:8.61486;stroke-linecap:round;stroke-linejoin:round;stroke-miterlimit:10;stroke-dasharray:none;stroke-opacity:1"
               id="path480" /><path
               d="M 87.1758,824.871 52.5273,859.52"
               style="fill:none;stroke:#ceb4d4;stroke-width:8.61486;stroke-linecap:round;stroke-linejoin:round;stroke-miterlimit:10;stroke-dasharray:none;stroke-opacity:1"
               id="path482" /><path
               d="m 986.84,186.941 c 12.68,-10.132 26.49,-19.441 42.46,-20.582 33.26,-2.379 41.97,33.821 24.71,56.743 -7.89,10.457 -18.91,18.027 -29.73,25.418 -51.073,34.839 -104.296,67.878 -152.635,106.332 -56.321,44.777 -111.704,91.867 -175.832,125.347 34.546,-29.918 69.093,-59.82 103.64,-89.73 -79,47.59 -145.426,113.09 -218.922,168.793 -41.125,31.16 -84.457,59.269 -127.75,87.34 106.348,-90.731 213.59,-180.403 321.711,-269 -41.73,23.308 -83.453,46.617 -125.183,69.929 54.539,-35.691 110.828,-66.59 157.82,-111.73 53.605,-51.492 116.098,-96.211 173.351,-143.66 2.09,-1.731 4.211,-3.481 6.36,-5.2"
               style="fill:#eda5d7;fill-opacity:1;fill-rule:nonzero;stroke:none"
               id="path484" /></g></g></g></g></g></svg>
