<svg xmlns="http://www.w3.org/2000/svg" viewBox="0 0 560.29 219.24">
  <path fill="#85c8ff" stroke="#1694ff" stroke-width="1.996" d="M560.9 671.3c0 119.98-124.37 217.24-277.78 217.24S5.34 791.279 5.34 671.3h277.78z" transform="matrix(1.0038 0 0 -.99999 -3.718 889.55)"/>
  <path class="sun" fill="#ffd343" stroke="#969600" stroke-width="3.076" d="M336.38 440.71c0 24.826-18.995 44.952-42.426 44.952s-42.426-20.126-42.426-44.952 18.995-44.952 42.426-44.952 42.426 20.126 42.426 44.952z" transform="matrix(.6692 0 0 .63161 149.209 -158.94)"/>
  <path fill="#fff" stroke="#969696" stroke-width="2" d="M500.279 113.18c-13.717-4.793-29.269-15.002-45.451-16.006-16.182-1.004-32.993 7.197-49.226 10.826-28.451 6.625-14.33 23.657 11.866 21.048 27.227 5.264 55.535-.519 82.62-5.562 13.588-1.999 10.085-8.536.19-10.306z"/>
  <path fill="#474344" d="M1 218.24c26.332-10.033 53.619-16.188 81.396-20.63 38.608-6.173 78.086-13.458 113.62-28.13 25.923-10.704 50.664-23.571 78.638-28.336 28.763-4.9 51.297 6.645 77.064-12.252 17.851-13.092 35.782-3.089 55.421-17.834 26.366-19.796 57.623 2.39 80.988 23.332 25.699 23.035 58.032 50.359 70.726 83.85H1.003z"/>
  <path fill="#4b3f42" stroke="#232323" stroke-width="2" d="M228.859 156.1c8.148-25.716 15.842-54.912 36.857-72.966 28.505-26.304 50.876 24.024 62.872 45.223 9.922 26.003-14.374 23.197-31.542 23.833l-68.187 3.91z"/>
  <path fill="#254036" d="m444.219 217.88-4.286-4.643.357-7.143 2.858-2.143s1.071-2.857-1.072-5c-2.15-2.15-4.65-7.15-4.65-7.15l-1.785-6.785 3.214-5 6.071 1.428s-.357 4.643-.357 6.072c0 1.428 3.214 5.714 3.214 5.714l11.786 3.571 7.143 7.143-1.785 5-3.572 3.215-3.214 6.071-13.93-.357zm-17.82-114.52c-1.01.015-1.728.04-1.906.063-.714.089-7.237 2.053-8.219 2.5-.982.446-7.866 4.553-8.938 5-1.07.446-7.598 5.718-8.937 5.718s-12.656 2.938-12.656 2.938-10.991 1.781-12.688 1.781c-1.696 0-11.25 2.5-11.25 2.5l-7.938 3.75-6.1 3.84s-8.633 5.442-10.062 5.531c-1.428.09-8.589 2.406-9.75 2.406s-11.062.907-11.062.907l-10.812.187-14.375-1.094s-17.402 1.72-18.562 1.72c-1.16 0-18.312 4.178-18.938 4.624-.625.447-15.25 6.094-15.25 6.094l-13.5 5.156L191.8 170.92l-23.75 8.656-21.25 5.625-25.28 5.813-46.157 7.75s-13.665 2.522-15.094 2.969c-1.428.446-22.125 5.25-22.125 5.25l-6.437 1.625 23.938 2.843h30.719l33.906-2.843 26.094-2.5 22.844.718s4.896.348 5.375-1.437c.35-1.3-2.875-2.875-2.875-2.875-1.307-1.307-3.65-.666-5.344-1.406-2.451-1.072-6.781-4.282-6.781-4.282-1.954-1.234 4.571-.76 6.781-1.437 3.319-1.016 9.625-3.938 9.625-3.938 4.256-1.733 7.198-5.782 11.094-8.218 2.844-1.78 8.906-4.625 8.906-4.625 2.206-1.147 4.697 1.764 7.157 2.125 2.237.328 6.78 0 6.78 0 3.036 0 5.598-2.376 8.22-3.907 2.51-1.465 7.125-5 7.125-5 1.916-1.34 1.23-4.547 1.812-6.812.244-.95.688-2.844.688-2.844.484-1.936 3.746-1.48 5.718-1.781 3.296-.503 10 0 10 0 2.86 0 6.456-2.274 8.594-.375 1.16 1.03 1.14 3.323.344 4.656-1.201 2.014-6.438 2.844-6.438 2.844l-3.55 3.94c-1.601 1.762-2.861 3.924-5.718 4.281-2.858.357-5.01 2.165-6.438 3.594s-3.187 6.424-5.687 6.781c-2.5.357-7.411-1.052-11.094-.719-1.467.133-2.853-.009-4.282 1.063-1.428 1.071-5.176 3.095-7.5 5-1.822 1.494-2.5 3.929-5 5s-8.562 2.285-8.562 5.719v5.344c0 5 10.704 2.217 15-.344 1.649-.983 1.296-3.865 2.844-5l5.375-3.938c1.854-1.36 3.192-2.143 6.406-2.5 3.214-.357 4.408-.475 4.656 1.094l1.063 6.781c.407 2.58-5.438 3.11-5.344 5.72.076 2.104 4.625 4.28 4.625 4.28 1.65 1.524 1.742-4.446 3.594-5.719 3.598-2.472 8.498-2.08 12.844-2.5 1.896-.182 3.84.318 5.718 0 2.859-.482 7.535-.634 8.22-2.875.683-2.24-.005-4.638-3.22-4.28-3.214.356-11.985 4.484-9.656 2.155l4.66-4.65c2.267-2.266 6.187-1.665 9.281-2.5 4.406-1.188 8.676-3.987 13.22-3.562 4.081.382 10.562 1.274 11.061 5.344.34 2.768-6.406 5.375-6.406 5.375s-.622 3.663.688 4.281c3.23 1.526 9.312-5.344 9.312-5.344 3.527-2.035 6.063-5.527 9.625-7.5 4.547-2.518 14.656-5.375 14.656-5.375 2.857-1.045 4.987-4.625 7.844-4.625s10.009-.375 11.438-.375c1.429 0 2.125 4.277 2.125 6.063s3.597 5.16 6.094 4.656c1.881-.38 1.546-3.585 2.844-5 1.272-1.387 4.656-3.219 4.656-3.219 2.73-1.89 7.433.005 9.625 2.5 1.267 1.442.719 5.719.719 5.719.29 2.33 3.724 3.348 6.062 3.562 1.388.128 3.938-1.406 3.938-1.406 2.063-.75 2.42-3.834 4.28-5 1.983-1.242 6.782-1.812 6.782-1.812 2.878-.758 6.808 2.142 8.594 2.5 1.785.357 5.657 1.535 8.562 1.812 0 0 4.992.569 7.5.688 1.427.067 3.381 1.109 4.281 0 1.457-1.795-.767-4.57-1.437-6.782-.929-3.067-3.205-7.477-3.563-8.906-.357-1.428-4.664-5.565-5.718-8.937 0 0-1.522-3.74-1.782-5.719-.372-2.835-.903-6.005.375-8.563l3.907-7.875c1.256-2.513 5.005-2.822 6.78-5 2.155-2.642.904-9.28 4.313-9.28 0 0 6.036-.787 8.907 0 3.603.987 9.656 1.982 9.656 5.718 0 0-.049 2.148 0 3.219.06 1.313-.551 2.974.344 3.937 0 0 2.698 3.843 4.656 5 1.268.75 4.57 2.507 4.281 1.063 0 0-.281-2.43-.719-3.563-.25-.647-.903-1.136-1.062-1.812 0 0-2.52-4.287-1.438-6.063 1.022-1.676 3.775-1.16 5.719-1.437 0 0 7.794 1.137 10-1.406 1.326-1.53-2.024-6.094 0-6.094 0 0 9.257-1.389 13.562 0 3.49 1.126 5.768 4.592 8.938 6.437 4.188 2.44 8.526 4.846 13.219 6.063 3.005.78 6.761-1.095 9.28.719 0 0 5.691 4.732 8.938 6.437 3.134 1.646 10 3.563 10 3.563s-13.054-13.13-13.5-13.22c-.446-.089-19.375-15.687-19.375-15.687s-19.272-13.938-19.719-13.938c-.446 0-8.13-3.849-10.094-3.938-1.964-.09-10.612-2.486-10.969-2.844-.268-.268-5.782-.296-8.812-.25zm-49.5 35.125c3.837-.168 7.833.854 7.688 3.719-.266 5.241-4.584 11.107-5.72 16.75-.812 4.04.762 8.412-.843 12.594-1.893 4.931-5.075 7.172-10.25 6.344-4.218-.676-13.133-1.597-17.406-.282-5.293.39-7.69-3.836-10.094-5.437-1.007-.67 5.694-2.698 5.375-3.938-.433-1.684-4.837-4.106-7.625-4.843-3.198-.846-7.476 1.677-10.594 1.28-.863-.109-3.008-1.726-2.188-2.124 4.74-2.301 11.861-2.987 16.875-6.406 5.785-3.946 12.358-6.438 18.406-9.844 3.972-2.237 7.326-5.234 11.656-6.906 1.27-.491 2.975-.83 4.72-.907z"/>
  <path fill="none" stroke="#232323" stroke-width="2" d="M1 218.24c26.332-10.033 53.619-16.188 81.396-20.63 38.608-6.173 78.086-13.458 113.62-28.13 25.923-10.704 50.664-23.571 78.638-28.336 28.763-4.9 51.297 6.645 77.064-12.252 17.851-13.092 35.782-3.089 55.421-17.834 26.366-19.796 57.623 2.39 80.988 23.332 25.699 23.035 58.032 50.359 70.726 83.85H1.003z"/>
  <path class="cloud_front" fill="#fff" stroke="#969696" stroke-width="2" d="M97.599 81.16c14.253-7.102 31.56-15.266 45.466-14.919 13.906.347 22.752 3.601 34.301 2.113 9.922-1.28 20.172-1.152 29.846 2.04 6.214 2.05 15.147 1.71 18.024 8.44 2.824 6.606-8.269 6.559-9.888 13.43-1.319 5.595-10.549 4.326-16.003 5.098-15.829 2.24-24.626 14.616-36.374 2.778-3.607-3.635-11.055-.258-16.243.99-9.257 2.225-19.315 6.74-26.072 4.633-12.51-3.9-18.875-1.046-30.815-6.702-6.255-2.964-4.064-10.397.836-13.48 2.315-1.457 4.47-3.198 6.923-4.42z"/>
</svg>
