<svg viewBox="0 0 560.29 219.24">
  <path fill="#85c8ff" stroke="#1694ff" stroke-width="2" d="M560.9 671.3c0 119.98-124.37 217.24-277.78 217.24S5.34 791.28 5.34 671.3h277.78z" transform="matrix(1.0038 0 0 -.99999 -3.72 889.55)"/>
  <path class="sun" fill="#ffd343" stroke="#969600" stroke-width="3.08" d="M336.38 440.71c0 24.83-19 44.95-42.43 44.95s-42.42-20.12-42.42-44.95 19-44.95 42.42-44.95 42.43 20.12 42.43 44.95z" transform="matrix(.6692 0 0 .63161 149.2 -158.94)"/>
  <path fill="#fff" stroke="#969696" stroke-width="2" d="M500.28 113.18c-13.72-4.8-29.27-15-45.45-16-16.18-1.01-33 7.2-49.23 10.82-28.45 6.63-14.33 23.66 11.87 21.05 27.22 5.26 55.53-.52 82.62-5.56 13.59-2 10.08-8.54.19-10.31z"/>
  <path fill="#474344" d="M1 218.24c26.33-10.03 53.62-16.19 81.4-20.63 38.6-6.17 78.08-13.46 113.62-28.13 25.92-10.7 50.66-23.57 78.63-28.34 28.77-4.9 51.3 6.65 77.07-12.25 17.85-13.09 35.78-3.09 55.42-17.83 26.36-19.8 57.62 2.39 80.99 23.33 25.7 23.04 58.03 50.36 70.72 83.85H1z"/>
  <path fill="#4b3f42" stroke="#232323" stroke-width="2" d="M228.86 156.1c8.15-25.72 15.84-54.91 36.86-72.97 28.5-26.3 50.87 24.03 62.87 45.23 9.92 26-14.38 23.2-31.54 23.83l-68.2 3.91z"/>
  <path fill="#254036" d="m444.22 217.88-4.29-4.64.36-7.15 2.86-2.14s1.07-2.86-1.07-5c-2.15-2.15-4.65-7.15-4.65-7.15l-1.79-6.78 3.21-5 6.08 1.42s-.36 4.65-.36 6.08c0 1.42 3.21 5.71 3.21 5.71l11.79 3.57 7.14 7.14-1.78 5-3.57 3.22-3.22 6.07-13.93-.36zM426.4 103.36c-1.01.02-1.73.04-1.9.06-.72.1-7.24 2.06-8.23 2.5-.98.45-7.86 4.56-8.93 5-1.07.45-7.6 5.72-8.94 5.72s-12.66 2.94-12.66 2.94-10.99 1.78-12.69 1.78c-1.7 0-11.25 2.5-11.25 2.5l-7.93 3.75-6.1 3.84s-8.64 5.44-10.06 5.53c-1.43.1-8.6 2.4-9.75 2.4s-11.07.91-11.07.91l-10.8.2-14.38-1.1s-17.4 1.72-18.57 1.72c-1.16 0-18.3 4.17-18.93 4.62-.63.45-15.25 6.1-15.25 6.1l-13.5 5.15-33.66 13.94-23.75 8.66-21.25 5.62-25.28 5.81-46.16 7.75s-13.66 2.53-15.1 2.97c-1.42.45-22.12 5.25-22.12 5.25l-6.43 1.63 23.93 2.84h30.72l33.91-2.84 26.1-2.5 22.84.72s4.9.34 5.37-1.44c.35-1.3-2.87-2.88-2.87-2.88-1.3-1.3-3.65-.66-5.35-1.4-2.45-1.07-6.78-4.28-6.78-4.28-1.95-1.24 4.57-.77 6.78-1.44 3.32-1.02 9.63-3.94 9.63-3.94 4.25-1.73 7.2-5.78 11.1-8.22 2.84-1.78 8.9-4.62 8.9-4.62 2.2-1.15 4.7 1.76 7.16 2.12 2.23.33 6.78 0 6.78 0 3.03 0 5.6-2.37 8.22-3.9 2.5-1.47 7.12-5 7.12-5 1.92-1.35 1.23-4.55 1.81-6.82.25-.95.7-2.84.7-2.84.47-1.94 3.74-1.48 5.7-1.78 3.3-.5 10 0 10 0 2.87 0 6.46-2.28 8.6-.38 1.16 1.03 1.14 3.33.35 4.66-1.2 2.01-6.44 2.84-6.44 2.84l-3.55 3.94c-1.6 1.76-2.86 3.93-5.72 4.28-2.86.36-5 2.17-6.44 3.6s-3.18 6.42-5.68 6.78c-2.5.36-7.42-1.05-11.1-.72-1.46.13-2.85 0-4.28 1.06-1.43 1.07-5.18 3.1-7.5 5-1.82 1.5-2.5 3.93-5 5s-8.56 2.29-8.56 5.72v5.35c0 5 10.7 2.21 15-.35 1.65-.98 1.3-3.86 2.84-5l5.38-3.94a11.2 11.2 0 0 1 6.4-2.5c3.22-.35 4.41-.47 4.66 1.1l1.06 6.78c.4 2.58-5.44 3.1-5.34 5.72.07 2.1 4.62 4.28 4.62 4.28 1.65 1.52 1.75-4.45 3.6-5.72 3.6-2.47 8.5-2.08 12.84-2.5 1.9-.18 3.84.32 5.72 0 2.86-.48 7.53-.63 8.22-2.87.68-2.24 0-4.64-3.22-4.29-3.21.36-11.99 4.49-9.66 2.16l4.66-4.65c2.27-2.27 6.19-1.66 9.28-2.5 4.41-1.19 8.68-3.99 13.22-3.56 4.09.38 10.57 1.27 11.07 5.34.34 2.77-6.41 5.38-6.41 5.38s-.62 3.66.69 4.28c3.23 1.52 9.3-5.35 9.3-5.35 3.54-2.03 6.07-5.52 9.63-7.5 4.55-2.51 14.66-5.37 14.66-5.37 2.86-1.05 4.99-4.63 7.84-4.63s10.01-.37 11.44-.37c1.43 0 2.13 4.28 2.13 6.06s3.6 5.16 6.1 4.66c1.87-.38 1.54-3.59 2.83-5 1.28-1.39 4.66-3.22 4.66-3.22 2.73-1.9 7.43 0 9.63 2.5 1.26 1.44.71 5.72.71 5.72.3 2.33 3.73 3.35 6.07 3.56 1.38.13 3.93-1.4 3.93-1.4 2.07-.76 2.43-3.84 4.29-5 1.98-1.25 6.78-1.82 6.78-1.82 2.88-.76 6.8 2.14 8.6 2.5 1.78.36 5.65 1.54 8.55 1.81 0 0 5 .57 7.5.7 1.43.06 3.38 1.1 4.28 0 1.46-1.8-.76-4.58-1.43-6.79-.93-3.07-3.2-7.48-3.57-8.9-.35-1.43-4.66-5.57-5.71-8.94 0 0-1.53-3.74-1.79-5.72-.37-2.84-.9-6 .38-8.56l3.9-7.88c1.26-2.51 5.01-2.82 6.79-5 2.15-2.64.9-9.28 4.3-9.28 0 0 6.05-.79 8.92 0 3.6.99 9.65 1.98 9.65 5.72 0 0-.05 2.15 0 3.22.06 1.31-.55 2.97.35 3.93 0 0 2.7 3.85 4.65 5 1.27.75 4.57 2.51 4.28 1.07 0 0-.28-2.43-.72-3.57-.25-.64-.9-1.13-1.06-1.8 0 0-2.52-4.3-1.44-6.07 1.03-1.68 3.78-1.16 5.72-1.44 0 0 7.8 1.14 10-1.4 1.33-1.53-2.02-6.1 0-6.1 0 0 9.26-1.39 13.56 0 3.5 1.13 5.77 4.6 8.94 6.44 4.2 2.44 8.53 4.85 13.22 6.06 3 .78 6.76-1.1 9.28.72 0 0 5.7 4.73 8.94 6.44 3.13 1.64 10 3.56 10 3.56s-13.05-13.13-13.5-13.22c-.45-.09-19.37-15.69-19.37-15.69s-19.28-13.93-19.72-13.93c-.45 0-8.13-3.85-10.1-3.94-1.96-.1-10.61-2.49-10.97-2.85-.26-.26-5.78-.3-8.8-.25zm-49.5 35.13c3.84-.17 7.83.85 7.69 3.71-.27 5.25-4.59 11.11-5.72 16.75-.82 4.04.76 8.42-.85 12.6-1.89 4.93-5.07 7.17-10.25 6.34-4.21-.67-13.13-1.6-17.4-.28-5.3.39-7.7-3.84-10.1-5.44-1-.67 5.7-2.7 5.38-3.93-.43-1.69-4.84-4.11-7.63-4.85-3.2-.84-7.47 1.68-10.59 1.28-.86-.1-3-1.72-2.19-2.12 4.74-2.3 11.86-2.99 16.88-6.4 5.78-3.95 12.36-6.45 18.4-9.85 3.97-2.24 7.33-5.24 11.66-6.9 1.27-.5 2.97-.84 4.72-.91z"/>
  <path fill="none" stroke="#232323" stroke-width="2" d="M1 218.24c26.33-10.03 53.62-16.19 81.4-20.63 38.6-6.17 78.08-13.46 113.62-28.13 25.92-10.7 50.66-23.57 78.63-28.34 28.77-4.9 51.3 6.65 77.07-12.25 17.85-13.09 35.78-3.09 55.42-17.83 26.36-19.8 57.62 2.39 80.99 23.33 25.7 23.04 58.03 50.36 70.72 83.85H1z"/>
  <path class="cloud_front" fill="#fff" stroke="#969696" stroke-width="2" d="M97.6 81.16c14.25-7.1 31.56-15.27 45.47-14.92 13.9.35 22.75 3.6 34.3 2.11 9.92-1.28 20.17-1.15 29.84 2.04 6.22 2.05 15.15 1.71 18.03 8.44 2.82 6.61-8.27 6.56-9.9 13.43-1.31 5.6-10.54 4.33-16 5.1-15.82 2.24-24.62 14.62-36.37 2.78-3.6-3.63-11.05-.26-16.24.99-9.26 2.23-19.32 6.74-26.07 4.63-12.51-3.9-18.88-1.04-30.82-6.7-6.25-2.96-4.06-10.4.84-13.48 2.31-1.46 4.47-3.2 6.92-4.42z"/>
</svg>
